<?xml version="1.0" encoding="UTF-8"?>
<svg version="1.1" xmlns="http://www.w3.org/2000/svg" width="1024" height="1024">
<path d="M0 0 C337.92 0 675.84 0 1024 0 C1024 337.92 1024 675.84 1024 1024 C686.08 1024 348.16 1024 0 1024 C0 686.08 0 348.16 0 0 Z " fill="#03243A" transform="translate(0,0)"/>
<path d="M0 0 C0.83660156 0.65355469 1.67320312 1.30710937 2.53515625 1.98046875 C14.67243276 11.5521421 26.06375681 21.72838912 36.9519043 32.69116211 C38.82183141 34.57188528 40.70232638 36.44156819 42.58398438 38.31054688 C49.51725584 45.23584919 55.9354248 52.29360349 62 60 C63.08356164 61.30623051 64.17166527 62.60871538 65.265625 63.90625 C73.53875559 73.82721432 80.88051451 84.22869008 88 95 C88.49274414 95.73927734 88.98548828 96.47855469 89.49316406 97.24023438 C96.14905407 107.23973558 102.29224212 117.4318612 108 128 C108.42200684 128.77698242 108.84401367 129.55396484 109.27880859 130.35449219 C113.86868918 138.83149653 118.39445575 147.25175725 121.8671875 156.26171875 C122.80775228 158.53529086 123.8331527 160.66349992 124.95703125 162.84765625 C126.91902146 166.72295092 128.42233405 170.6400953 129.8125 174.75 C130.3277573 176.24882437 130.8433984 177.74751685 131.359375 179.24609375 C131.62556641 180.0232373 131.89175781 180.80038086 132.16601562 181.60107422 C133.00895793 184.02576715 133.88278329 186.43722792 134.765625 188.84765625 C138.43095239 198.9268083 141.41473515 208.98193737 143.8828125 219.41796875 C144.78861562 223.23060478 145.88473697 226.94878713 147.0625 230.6875 C149.85580772 240.17569909 151.04952765 250.02257582 152.46923828 259.79199219 C152.91156458 262.46548233 153.43281536 265.09437162 153.98876953 267.74536133 C155.01345176 272.82261297 155.6484771 277.87063666 156.109375 283.02734375 C156.23551178 284.43849709 156.23551178 284.43849709 156.36419678 285.87815857 C157.21942974 296.34531942 157.30163747 306.79893692 157.26074219 317.2956543 C157.24999564 320.56382737 157.26072949 323.83145245 157.2734375 327.09960938 C157.28232555 340.51425641 156.55888754 353.67819466 155 367 C154.81945068 368.63014038 154.81945068 368.63014038 154.63525391 370.29321289 C154.34741153 372.7837047 154.03006045 375.26650121 153.6875 377.75 C153.50465454 379.07970825 153.50465454 379.07970825 153.31811523 380.4362793 C151.83102649 390.77761124 149.76931549 401.00332722 147.59228516 411.21875 C147.23153848 412.91274263 146.87573369 414.60781032 146.52880859 416.3046875 C143.76728069 429.80973745 139.34892328 442.80954236 135.02490234 455.88134766 C134.18054926 458.4506107 133.35630816 461.02386481 132.55078125 463.60546875 C130.00211458 471.64096598 126.78118033 479.18983082 123.08789062 486.75488281 C121.84735053 489.31502794 120.63380925 491.88712984 119.421875 494.4609375 C107.13456258 520.50082218 93.39424541 544.97787812 76 568 C75.52852539 568.62455078 75.05705078 569.24910156 74.57128906 569.89257812 C67.44453779 579.27014865 59.81318104 588.19055744 52 597 C51.15308594 597.96035156 50.30617188 598.92070313 49.43359375 599.91015625 C37.23956138 613.4781641 24.45622284 626.83864276 10 638 C8.79092606 638.99333855 7.58548159 639.99110392 6.3828125 640.9921875 C-3.07156353 648.844881 -12.8205653 656.11445916 -23 663 C-24.04607422 663.70769531 -24.04607422 663.70769531 -25.11328125 664.4296875 C-35.08925274 671.12969061 -45.34189959 677.17287461 -55.91992188 682.86962891 C-57.78821533 683.88491045 -59.63837745 684.92538382 -61.484375 685.98046875 C-69.82474936 690.64070097 -78.47433826 694.48883848 -87.25 698.25 C-88.4344873 698.75772949 -89.61897461 699.26545898 -90.83935547 699.78857422 C-152.12936701 725.73710955 -221.71357295 736.92379573 -288 729 C-289.07846191 728.87109375 -290.15692383 728.7421875 -291.26806641 728.609375 C-304.76195188 726.93883236 -318.11564731 724.71955235 -331.4375 722 C-332.6030542 721.76313477 -333.7686084 721.52626953 -334.96948242 721.28222656 C-341.77337663 719.84263135 -348.38209898 718.06506082 -355.00439453 715.94042969 C-358.12953031 714.95933572 -361.2732122 714.0953414 -364.4375 713.25 C-413.80365357 699.18447731 -461.36158031 673.16012813 -500.08203125 639.515625 C-502.90017333 637.08606208 -505.77912367 634.75771097 -508.6875 632.4375 C-513.31623602 628.67665198 -517.49477599 624.61057778 -521.65625 620.34375 C-523.7607024 618.2392976 -525.91698929 616.29620137 -528.1875 614.375 C-531.43131613 611.58905851 -534.19979295 608.61462796 -536.9609375 605.35546875 C-539.02489354 602.97124367 -541.15500725 600.66613469 -543.30883789 598.36352539 C-562.32967754 578.00841016 -578.10147202 555.26179596 -592.44140625 531.44140625 C-593.91230606 528.94401619 -593.91230606 528.94401619 -596 527 C-596.71247732 525.3523962 -597.37400383 523.68236471 -598 522 C-598.556875 520.6078125 -598.556875 520.6078125 -599.125 519.1875 C-599.41375 518.465625 -599.7025 517.74375 -600 517 C-600.66 517 -601.32 517 -602 517 C-602.3815625 515.74703125 -602.763125 514.4940625 -603.15625 513.203125 C-605.07676751 507.44605966 -607.78236878 502.16398685 -610.5 496.75 C-617.31135776 482.85333019 -622.84004261 468.5811091 -628 454 C-628.52400391 452.52104248 -628.52400391 452.52104248 -629.05859375 451.01220703 C-633.96278098 436.94713592 -637.3113078 422.64727293 -640.34765625 408.07666016 C-640.91948482 405.37973516 -641.52546194 402.69532496 -642.15625 400.01171875 C-648.07106158 374.45634972 -649.22426806 347.9624377 -649.25 321.8125 C-649.25167175 320.90390228 -649.25334351 319.99530457 -649.25506592 319.05917358 C-649.25676685 303.50400355 -648.34369564 288.30264158 -646.3671875 272.86816406 C-646.06196758 270.48403929 -645.78542338 268.10087331 -645.53125 265.7109375 C-643.02232326 243.95082289 -637.28221926 222.92261017 -631 202 C-630.61303955 200.67790527 -630.61303955 200.67790527 -630.21826172 199.32910156 C-623.74125063 177.2908882 -614.51524709 156.34855731 -604.00927734 135.9609375 C-603.33085135 134.6428152 -602.65676048 133.32245347 -601.98681641 132 C-592.6685144 113.61966034 -581.96893459 95.05794358 -569 79 C-567.49825441 77.02215752 -565.99839661 75.04288085 -564.5 73.0625 C-558.94479513 65.79719823 -553.0416935 58.86313381 -547 52 C-546.20851563 51.09507812 -545.41703125 50.19015625 -544.6015625 49.2578125 C-538.62331803 42.58307352 -532.33592024 36.20850837 -526.02529907 29.85006714 C-525.02569029 28.84241845 -524.02756645 27.83329399 -523.03109741 26.82254028 C-516.37135342 20.07752861 -509.41331607 13.91853911 -502 8 C-500.89828422 7.06508802 -499.80193811 6.1237489 -498.71484375 5.171875 C-443.90127834 -42.62617079 -372.60651887 -71.15503413 -301.1875 -81.375 C-300.30003082 -81.5026474 -299.41256165 -81.6302948 -298.49819946 -81.7618103 C-209.95200191 -94.33469884 -116.46268586 -74.3415988 0 0 Z " fill="#03273E" transform="translate(758,197)"/>
<path d="M0 0 C0.83660156 0.65355469 1.67320312 1.30710937 2.53515625 1.98046875 C14.67243276 11.5521421 26.06375681 21.72838912 36.9519043 32.69116211 C38.82183141 34.57188528 40.70232638 36.44156819 42.58398438 38.31054688 C49.51725584 45.23584919 55.9354248 52.29360349 62 60 C63.08356164 61.30623051 64.17166527 62.60871538 65.265625 63.90625 C73.53875559 73.82721432 80.88051451 84.22869008 88 95 C88.49274414 95.73927734 88.98548828 96.47855469 89.49316406 97.24023438 C96.14905407 107.23973558 102.29224212 117.4318612 108 128 C108.42200684 128.77698242 108.84401367 129.55396484 109.27880859 130.35449219 C113.86868918 138.83149653 118.39445575 147.25175725 121.8671875 156.26171875 C122.80775228 158.53529086 123.8331527 160.66349992 124.95703125 162.84765625 C126.91902146 166.72295092 128.42233405 170.6400953 129.8125 174.75 C130.3277573 176.24882437 130.8433984 177.74751685 131.359375 179.24609375 C131.62556641 180.0232373 131.89175781 180.80038086 132.16601562 181.60107422 C133.00895793 184.02576715 133.88278329 186.43722792 134.765625 188.84765625 C138.43095239 198.9268083 141.41473515 208.98193737 143.8828125 219.41796875 C144.78861562 223.23060478 145.88473697 226.94878713 147.0625 230.6875 C149.85580772 240.17569909 151.04952765 250.02257582 152.46923828 259.79199219 C152.91156458 262.46548233 153.43281536 265.09437162 153.98876953 267.74536133 C155.01345176 272.82261297 155.6484771 277.87063666 156.109375 283.02734375 C156.23551178 284.43849709 156.23551178 284.43849709 156.36419678 285.87815857 C157.21942974 296.34531942 157.30163747 306.79893692 157.26074219 317.2956543 C157.24999564 320.56382737 157.26072949 323.83145245 157.2734375 327.09960938 C157.28232555 340.51425641 156.55888754 353.67819466 155 367 C154.81945068 368.63014038 154.81945068 368.63014038 154.63525391 370.29321289 C154.34741153 372.7837047 154.03006045 375.26650121 153.6875 377.75 C153.50465454 379.07970825 153.50465454 379.07970825 153.31811523 380.4362793 C151.83102649 390.77761124 149.76931549 401.00332722 147.59228516 411.21875 C147.23153848 412.91274263 146.87573369 414.60781032 146.52880859 416.3046875 C143.76728069 429.80973745 139.34892328 442.80954236 135.02490234 455.88134766 C134.18054926 458.4506107 133.35630816 461.02386481 132.55078125 463.60546875 C130.00211458 471.64096598 126.78118033 479.18983082 123.08789062 486.75488281 C121.84735053 489.31502794 120.63380925 491.88712984 119.421875 494.4609375 C107.13456258 520.50082218 93.39424541 544.97787812 76 568 C75.52852539 568.62455078 75.05705078 569.24910156 74.57128906 569.89257812 C67.44453779 579.27014865 59.81318104 588.19055744 52 597 C51.15308594 597.96035156 50.30617188 598.92070313 49.43359375 599.91015625 C37.23956138 613.4781641 24.45622284 626.83864276 10 638 C8.79092606 638.99333855 7.58548159 639.99110392 6.3828125 640.9921875 C-3.07156353 648.844881 -12.8205653 656.11445916 -23 663 C-24.04607422 663.70769531 -24.04607422 663.70769531 -25.11328125 664.4296875 C-35.08925274 671.12969061 -45.34189959 677.17287461 -55.91992188 682.86962891 C-57.78821533 683.88491045 -59.63837745 684.92538382 -61.484375 685.98046875 C-69.82474936 690.64070097 -78.47433826 694.48883848 -87.25 698.25 C-88.4344873 698.75772949 -89.61897461 699.26545898 -90.83935547 699.78857422 C-152.12936701 725.73710955 -221.71357295 736.92379573 -288 729 C-289.07846191 728.87109375 -290.15692383 728.7421875 -291.26806641 728.609375 C-304.76195188 726.93883236 -318.11564731 724.71955235 -331.4375 722 C-332.6030542 721.76313477 -333.7686084 721.52626953 -334.96948242 721.28222656 C-341.77337663 719.84263135 -348.38209898 718.06506082 -355.00439453 715.94042969 C-358.12953031 714.95933572 -361.2732122 714.0953414 -364.4375 713.25 C-413.80365357 699.18447731 -461.36158031 673.16012813 -500.08203125 639.515625 C-502.90017333 637.08606208 -505.77912367 634.75771097 -508.6875 632.4375 C-513.31623602 628.67665198 -517.49477599 624.61057778 -521.65625 620.34375 C-523.7607024 618.2392976 -525.91698929 616.29620137 -528.1875 614.375 C-531.43131613 611.58905851 -534.19979295 608.61462796 -536.9609375 605.35546875 C-539.02489354 602.97124367 -541.15500725 600.66613469 -543.30883789 598.36352539 C-562.32967754 578.00841016 -578.10147202 555.26179596 -592.44140625 531.44140625 C-593.91230606 528.94401619 -593.91230606 528.94401619 -596 527 C-596.71247732 525.3523962 -597.37400383 523.68236471 -598 522 C-598.556875 520.6078125 -598.556875 520.6078125 -599.125 519.1875 C-599.41375 518.465625 -599.7025 517.74375 -600 517 C-600.66 517 -601.32 517 -602 517 C-602.3815625 515.74703125 -602.763125 514.4940625 -603.15625 513.203125 C-605.07676751 507.44605966 -607.78236878 502.16398685 -610.5 496.75 C-617.31135776 482.85333019 -622.84004261 468.5811091 -628 454 C-628.52400391 452.52104248 -628.52400391 452.52104248 -629.05859375 451.01220703 C-633.96278098 436.94713592 -637.3113078 422.64727293 -640.34765625 408.07666016 C-640.91948482 405.37973516 -641.52546194 402.69532496 -642.15625 400.01171875 C-648.07106158 374.45634972 -649.22426806 347.9624377 -649.25 321.8125 C-649.25167175 320.90390228 -649.25334351 319.99530457 -649.25506592 319.05917358 C-649.25676685 303.50400355 -648.34369564 288.30264158 -646.3671875 272.86816406 C-646.06196758 270.48403929 -645.78542338 268.10087331 -645.53125 265.7109375 C-643.02232326 243.95082289 -637.28221926 222.92261017 -631 202 C-630.61303955 200.67790527 -630.61303955 200.67790527 -630.21826172 199.32910156 C-623.74125063 177.2908882 -614.51524709 156.34855731 -604.00927734 135.9609375 C-603.33085135 134.6428152 -602.65676048 133.32245347 -601.98681641 132 C-592.6685144 113.61966034 -581.96893459 95.05794358 -569 79 C-567.49825441 77.02215752 -565.99839661 75.04288085 -564.5 73.0625 C-558.94479513 65.79719823 -553.0416935 58.86313381 -547 52 C-546.20851563 51.09507812 -545.41703125 50.19015625 -544.6015625 49.2578125 C-538.62331803 42.58307352 -532.33592024 36.20850837 -526.02529907 29.85006714 C-525.02569029 28.84241845 -524.02756645 27.83329399 -523.03109741 26.82254028 C-516.37135342 20.07752861 -509.41331607 13.91853911 -502 8 C-500.89828422 7.06508802 -499.80193811 6.1237489 -498.71484375 5.171875 C-443.90127834 -42.62617079 -372.60651887 -71.15503413 -301.1875 -81.375 C-300.30003082 -81.5026474 -299.41256165 -81.6302948 -298.49819946 -81.7618103 C-209.95200191 -94.33469884 -116.46268586 -74.3415988 0 0 Z M-277 -75 C-278.61519743 -74.85583789 -280.23273249 -74.73567677 -281.8515625 -74.640625 C-364.78887243 -69.15025507 -443.07668854 -32.4783687 -505 22 C-505.92683594 22.81339844 -506.85367188 23.62679687 -507.80859375 24.46484375 C-514.64019082 30.5987458 -521.16872378 37.03686702 -527.6875 43.5 C-528.56672119 44.36616943 -529.44594238 45.23233887 -530.35180664 46.12475586 C-536.33771061 52.1027829 -541.72627954 58.39128499 -547 65 C-547.93468596 66.12042771 -548.87375795 67.23723715 -549.8203125 68.34765625 C-554.92079291 74.35584927 -559.58287623 80.47948395 -564 87 C-564.80432236 88.14830502 -565.610443 89.2953517 -566.41796875 90.44140625 C-603.25022819 142.91838668 -630.08701172 204.63931725 -636.7421875 268.80322266 C-637.03033835 271.258508 -637.40354002 273.69363003 -637.78125 276.13671875 C-644.69136094 323.50151732 -639.43016914 372.60403059 -629 419 C-628.7529834 420.11592529 -628.7529834 420.11592529 -628.50097656 421.25439453 C-614.56389843 483.47033635 -581.08709139 542.68053648 -539 590 C-538.53980469 590.51804199 -538.07960938 591.03608398 -537.60546875 591.56982422 C-531.21050272 598.72362953 -524.5196145 605.57628378 -517.75 612.375 C-516.63310791 613.49890137 -516.63310791 613.49890137 -515.49365234 614.64550781 C-476.26443814 653.76136799 -426.74426677 682.13434419 -375 701 C-374.25524414 701.27183105 -373.51048828 701.54366211 -372.74316406 701.82373047 C-344.66031756 711.93552003 -314.6719521 718.11202538 -285 721 C-283.55475952 721.14139404 -283.55475952 721.14139404 -282.08032227 721.28564453 C-212.57915837 727.15395517 -142.00229011 715.10812283 -79 685 C-78.15163574 684.59700684 -77.30327148 684.19401367 -76.42919922 683.77880859 C-29.54603042 661.35349004 17.86715425 627.68158875 50.14453125 586.3515625 C51.94474867 584.07002379 53.84174742 581.94714883 55.8125 579.8125 C88.72610141 543.16169684 112.01847208 496.1654304 128 450 C128.24524414 449.31147949 128.49048828 448.62295898 128.74316406 447.91357422 C140.2214304 415.45805015 147.64314584 378.45625209 148 344 C148.02433105 342.71689941 148.04866211 341.43379883 148.07373047 340.11181641 C149.81392213 246.72991515 124.88594228 157.22494215 68 82 C67.25878906 81.00484375 66.51757812 80.0096875 65.75390625 78.984375 C49.62892809 57.51717847 30.88300718 35.93816153 9.79296875 19.23046875 C7.28659646 17.22887634 4.84650587 15.16678104 2.41894531 13.07080078 C-10.58004327 1.87744678 -24.40761223 -7.99657235 -39 -17 C-39.83805176 -17.5170752 -40.67610352 -18.03415039 -41.53955078 -18.56689453 C-63.47410377 -32.00387811 -86.05122572 -42.6482452 -110 -52 C-111.13066895 -52.44384033 -112.26133789 -52.88768066 -113.42626953 -53.3449707 C-136.5454293 -62.34645991 -160.92663286 -67.62601415 -185.37304688 -71.55883789 C-188.13017904 -72.02186185 -190.87167902 -72.54694984 -193.6171875 -73.07421875 C-198.33909264 -73.9410298 -202.95779505 -74.37818443 -207.75 -74.5625 C-209.16158797 -74.62336664 -210.57305392 -74.68713689 -211.984375 -74.75390625 C-212.58991211 -74.77783447 -213.19544922 -74.8017627 -213.81933594 -74.82641602 C-216 -75 -216 -75 -219.06518555 -75.50708008 C-224.05447296 -76.13209536 -228.94978922 -76.14303114 -233.97265625 -76.1328125 C-235.01393173 -76.13376923 -236.05520721 -76.13472595 -237.1280365 -76.13571167 C-239.32079123 -76.13638974 -241.513548 -76.13456158 -243.70629883 -76.13037109 C-247.05489623 -76.12501217 -250.40335984 -76.13033159 -253.75195312 -76.13671875 C-255.88802113 -76.13605801 -258.02408905 -76.13477693 -260.16015625 -76.1328125 C-261.15717056 -76.13483673 -262.15418488 -76.13686096 -263.18141174 -76.13894653 C-267.91539708 -76.12303705 -272.33806261 -75.91288146 -277 -75 Z " fill="#2FE2EA" transform="translate(758,197)"/>
<path d="M0 0 C0.37734156 13.33240046 0.71043786 26.66540131 1 40 C1.01651611 40.72971008 1.03303223 41.45942017 1.05004883 42.21124268 C1.37509551 56.75795068 1.45810329 70.80124894 -2 85 C-2.18804199 85.78890625 -2.37608398 86.5778125 -2.56982422 87.390625 C-10.87699911 121.01584842 -31.84253449 145.90248425 -60.9375 163.75 C-67.68328681 167.55623203 -74.72542983 170.39973583 -82 173 C-82.63953613 173.22961426 -83.27907227 173.45922852 -83.93798828 173.69580078 C-104.45940716 180.9183077 -124.48720699 181.44632644 -146.06225586 181.43579102 C-163.44837221 181.45407295 -179.40007168 182.21978229 -195.375 189.75 C-196.12120605 190.09289062 -196.86741211 190.43578125 -197.63623047 190.7890625 C-207.60326726 195.5210843 -215.47729354 201.99825327 -223 210 C-223.99659674 211.00339172 -224.99541642 212.00460469 -226 213 C-224.31108183 200.86645634 -221.56188447 188.97692051 -216 178 C-215.49597656 176.98164062 -214.99195313 175.96328125 -214.47265625 174.9140625 C-210.69526189 167.56484627 -206.48629826 161.17606497 -201 155 C-200.38511719 154.29101562 -199.77023437 153.58203125 -199.13671875 152.8515625 C-190.37351545 143.38077136 -179.07968078 137.66873168 -166.234375 136.72265625 C-158.48881706 136.45531286 -151.12575088 137.19272842 -143.5 138.5 C-116.42418525 143.06854455 -90.76887402 140.1575994 -68 124 C-62.81714073 119.56170387 -62.81714073 119.56170387 -59 114 C-58.34 114 -57.68 114 -57 114 C-56.72929688 113.27296875 -56.45859375 112.5459375 -56.1796875 111.796875 C-55.03204488 109.07597395 -53.69812003 106.74416958 -52.125 104.25 C-44.04800754 90.87983287 -40.27075754 75.96543208 -39.625 60.375 C-38.43312575 38.22196249 -28.14768372 26.95139532 -12.9765625 11.84619141 C-11.47013623 10.34524486 -9.96928416 8.8388661 -8.46875 7.33203125 C-7.51073809 6.37467825 -6.55241705 5.41763446 -5.59375 4.4609375 C-4.73458984 3.60290527 -3.87542969 2.74487305 -2.99023438 1.86083984 C-1 0 -1 0 0 0 Z " fill="#2BE3D7" transform="translate(665,355)"/>
<path d="M0 0 C1.32435027 3.97305081 0.37698001 6.04865453 -0.75 10.0625 C-1.09546875 11.31160156 -1.4409375 12.56070312 -1.796875 13.84765625 C-2.19740933 15.23191773 -2.59848449 16.6160228 -3 18 C-3.22034912 18.79156494 -3.44069824 19.58312988 -3.66772461 20.39868164 C-9.11256443 39.44730123 -19.42734329 59.1226375 -36.80859375 69.7109375 C-50.72168829 77.12884226 -64.63375084 78.75124801 -80.02929688 75.53393555 C-90.86227293 73.58688438 -102.08081964 73.84020514 -113.05249023 73.86962891 C-115.45888404 73.87504816 -117.86509575 73.86961578 -120.27148438 73.86328125 C-121.82552124 73.86394123 -123.37955799 73.86522072 -124.93359375 73.8671875 C-125.64100204 73.86516327 -126.34841034 73.86313904 -127.07725525 73.86105347 C-131.4934568 73.88167561 -135.65564853 74.28697548 -140 75 C-140 74.34 -140 73.68 -140 73 C-156.66975682 74.23055154 -156.66975682 74.23055154 -171 81 C-174.0536908 82.11043302 -177.14466059 83.04451095 -180.25 84 C-183.09816984 84.8162462 -183.09816984 84.8162462 -185 87 C-186.68360439 87.69324887 -188.36759608 88.38559339 -190.0546875 89.0703125 C-192.17009877 90.08129218 -193.93000482 91.29335085 -195.8125 92.6875 C-199 95 -199 95 -201 95 C-201 95.66 -201 96.32 -201 97 C-201.66 97 -202.32 97 -203 97 C-203 97.66 -203 98.32 -203 99 C-203.66 99 -204.32 99 -205 99 C-205 99.66 -205 100.32 -205 101 C-206.98 101.495 -206.98 101.495 -209 102 C-209.10570312 102.58652344 -209.21140625 103.17304688 -209.3203125 103.77734375 C-210.09494223 106.31047199 -211.11254798 107.60275858 -212.875 109.5625 C-213.38804687 110.14128906 -213.90109375 110.72007812 -214.4296875 111.31640625 C-215.91994884 112.914174 -217.44355696 114.466857 -219 116 C-218.44384714 110.93979231 -216.74021207 106.85366936 -214.4375 102.375 C-214.07889893 101.6727832 -213.72029785 100.97056641 -213.35083008 100.24707031 C-207.40012251 88.81150982 -200.04484367 79.12704078 -191 70 C-190.15824219 69.14535156 -189.31648438 68.29070312 -188.44921875 67.41015625 C-169.48636213 49.19545482 -144.69095405 38.44911981 -119 34 C-118.19626953 33.83226074 -117.39253906 33.66452148 -116.56445312 33.49169922 C-103.79756027 31.10908529 -90.71848429 31.64180365 -77.77978516 31.61914062 C-64.88029134 31.58122881 -53.25408783 31.28003925 -41 27 C-40.20335937 26.75411133 -39.40671875 26.50822266 -38.5859375 26.25488281 C-23.57298837 21.57579952 -8.89952909 13.34929363 0 0 Z " fill="#13B6E7" transform="translate(598,247)"/>
<path d="M0 0 C0.37734156 13.33240046 0.71043786 26.66540131 1 40 C1.01651611 40.72971008 1.03303223 41.45942017 1.05004883 42.21124268 C1.37565984 56.78320612 1.33519443 70.75667494 -2 85 C-2.14985352 85.66902344 -2.29970703 86.33804688 -2.45410156 87.02734375 C-4.12496599 94.30677857 -5.4097179 98.88347062 -11 104 C-12.01502496 105.0595436 -13.02244358 106.12640959 -14.0234375 107.19921875 C-36.01217785 130.26780741 -63.67402862 140.67936702 -95 144 C-95.76014404 144.08628662 -96.52028809 144.17257324 -97.3034668 144.26147461 C-108.40492481 145.40921697 -119.60189304 145.62420142 -130.74926758 146.04956055 C-158.26530513 147.11132445 -184.30268654 149.92365887 -204.125 171.25 C-211.56271064 179.99230908 -217.14798767 189.63433729 -222 200 C-223.81176436 195.81232909 -222.03148335 192.14922469 -220.5625 188.125 C-220.29099121 187.373396 -220.01948242 186.62179199 -219.73974609 185.84741211 C-215.4189394 174.34590558 -209.16189656 164.20623372 -201 155 C-200.07960938 153.93845703 -200.07960938 153.93845703 -199.140625 152.85546875 C-190.37496479 143.38348468 -179.08287774 137.66896714 -166.234375 136.72265625 C-158.48881706 136.45531286 -151.12575088 137.19272842 -143.5 138.5 C-116.42418525 143.06854455 -90.76887402 140.1575994 -68 124 C-62.81714073 119.56170387 -62.81714073 119.56170387 -59 114 C-58.34 114 -57.68 114 -57 114 C-56.72929688 113.27296875 -56.45859375 112.5459375 -56.1796875 111.796875 C-55.03204488 109.07597395 -53.69812003 106.74416958 -52.125 104.25 C-44.04800754 90.87983287 -40.27075754 75.96543208 -39.625 60.375 C-38.43312575 38.22196249 -28.14768372 26.95139532 -12.9765625 11.84619141 C-11.47013623 10.34524486 -9.96928416 8.8388661 -8.46875 7.33203125 C-7.51073809 6.37467825 -6.55241705 5.41763446 -5.59375 4.4609375 C-4.73458984 3.60290527 -3.87542969 2.74487305 -2.99023438 1.86083984 C-1 0 -1 0 0 0 Z " fill="#18BFAA" transform="translate(665,355)"/>
<path d="M0 0 C0 0.66 0 1.32 0 2 C1.175625 1.67 2.35125 1.34 3.5625 1 C10.29585602 -0.53227012 17.13917106 -0.16270741 24 0 C24 0.33 24 0.66 24 1 C22.92363281 1.17015625 21.84726562 1.3403125 20.73828125 1.515625 C-0.70381771 5.01944545 -16.47854281 11.41123012 -30.25 29.125 C-40.96869362 44.71982064 -45.93806932 64.10494228 -47.38671875 82.76953125 C-48.36883571 95.12230248 -49.64950585 106.90222191 -59 116 C-59.66 116 -60.32 116 -61 116 C-61 116.66 -61 117.32 -61 118 C-62.22265625 119.19921875 -62.22265625 119.19921875 -64.0625 120.6875 C-69.34787629 125.15240271 -74.13936167 130.08792162 -78.98266602 135.02026367 C-79.61615967 135.6619751 -80.24965332 136.30368652 -80.90234375 136.96484375 C-81.76073853 137.84064087 -81.76073853 137.84064087 -82.63647461 138.73413086 C-84 140 -84 140 -85 140 C-88.60941175 65.96386144 -88.60941175 65.96386144 -82 50 C-81.58911437 48.40464778 -81.21195834 46.80008636 -80.875 45.1875 C-80.70742188 44.39730469 -80.53984375 43.60710937 -80.3671875 42.79296875 C-80.24601562 42.20128906 -80.12484375 41.60960937 -80 41 C-79.34 41.33 -78.68 41.66 -78 42 C-73.91024347 36.71717313 -73.91024347 36.71717313 -70.375 31.0625 C-69 29 -69 29 -66.8125 28.1875 C-66.214375 28.125625 -65.61625 28.06375 -65 28 C-65 27.34 -65 26.68 -65 26 C-64.34 26 -63.68 26 -63 26 C-63 25.34 -63 24.68 -63 24 C-62.34 24 -61.68 24 -61 24 C-61 23.34 -61 22.68 -61 22 C-59.04402816 20.60287726 -57.0340906 19.28072371 -55 18 C-53.989375 17.29875 -52.97875 16.5975 -51.9375 15.875 C-49.26637559 14.17002697 -46.95286354 13.09873992 -44 12 C-42.49684404 11.34048002 -40.99712896 10.67308938 -39.5 10 C-36.35649574 8.59655741 -33.2138911 7.23611196 -30 6 C-28.865625 5.525625 -27.73125 5.05125 -26.5625 4.5625 C-18.10026041 1.4152534 -9.03482244 -0.54208935 0 0 Z " fill="#094FAF" transform="translate(458,320)"/>
<path d="M0 0 C4.51149712 0.21053653 6.48469427 2.04358334 9.5 5.25 C10.675625 6.47976563 10.675625 6.47976563 11.875 7.734375 C12.57625 8.48203125 13.2775 9.2296875 14 10 C14.825 10.825 15.65 11.65 16.5 12.5 C18.03581847 14.03581847 19.56688861 15.57642505 21.08984375 17.125 C25.91770343 22.05166961 25.91770343 22.05166961 31.125 26.5625 C34.22672851 29.19222634 36.76550949 32.03556754 39.38671875 35.1328125 C40.91730687 37.01871981 40.91730687 37.01871981 42.70703125 38.3671875 C44 40 44 40 44.54833984 42.59570312 C43.69466304 47.89564496 40.29006912 50.47095925 36.51953125 54.1015625 C35.75452805 54.86044769 34.98952484 55.61933289 34.20133972 56.4012146 C31.75209684 58.82351807 29.28255329 61.22393993 26.8125 63.625 C25.16730511 65.24866897 23.52340892 66.87365498 21.88085938 68.5 C7.86089972 82.32495739 7.86089972 82.32495739 4 85 C-0.29268293 84.70731707 -0.29268293 84.70731707 -2 83 C-2.15806531 81.07521187 -2.251135 79.1450079 -2.31640625 77.21484375 C-2.35830078 76.04501953 -2.40019531 74.87519531 -2.44335938 73.66992188 C-2.48267578 72.43822266 -2.52199219 71.20652344 -2.5625 69.9375 C-2.60568359 68.70193359 -2.64886719 67.46636719 -2.69335938 66.19335938 C-2.79984198 63.12902665 -2.90185424 60.06460927 -3 57 C-3.95173599 56.98786972 -3.95173599 56.98786972 -4.92269897 56.97549438 C-11.50857064 56.88963817 -18.09413471 56.79014361 -24.6796875 56.68261719 C-27.13959602 56.64426238 -29.59956187 56.60942116 -32.05957031 56.578125 C-35.58940163 56.53261549 -39.11883595 56.47459802 -42.6484375 56.4140625 C-43.75367767 56.40251129 -44.85891785 56.39096008 -45.99765015 56.37905884 C-47.01855743 56.35918915 -48.03946472 56.33931946 -49.09130859 56.31884766 C-49.99287689 56.30552399 -50.89444519 56.29220032 -51.82333374 56.2784729 C-54 56 -54 56 -56 54 C-55.75845944 49.54659587 -53.84474504 47.18399162 -51 43.875 C-50.278125 43.02679688 -49.55625 42.17859375 -48.8125 41.3046875 C-48.37929443 40.82652588 -47.94608887 40.34836426 -47.49975586 39.85571289 C-45.86339811 37.9174643 -45.86339811 37.9174643 -44.31469727 35.20483398 C-39.37374816 27.71523649 -39.37374816 27.71523649 -35.09588623 26.42626953 C-29.71812993 25.62986588 -24.34197471 25.99593125 -18.9375 26.3125 C-17.29248205 26.36776068 -15.64728498 26.4179362 -14.00195312 26.46289062 C-9.99683076 26.58330573 -6.00041234 26.77254117 -2 27 C-2.01571045 25.87972412 -2.01571045 25.87972412 -2.03173828 24.73681641 C-2.0732077 21.36624492 -2.09929729 17.995727 -2.125 14.625 C-2.14175781 13.449375 -2.15851562 12.27375 -2.17578125 11.0625 C-2.18544922 9.38027344 -2.18544922 9.38027344 -2.1953125 7.6640625 C-2.21102295 6.10872803 -2.21102295 6.10872803 -2.22705078 4.52197266 C-2 2 -2 2 0 0 Z " fill="#9FD03B" transform="translate(614,296)"/>
<path d="M0 0 C1.80394875 1.80394875 1.23705789 4.56677799 1.31640625 7.00390625 C1.35830078 8.21884766 1.40019531 9.43378906 1.44335938 10.68554688 C1.48267578 11.96494141 1.52199219 13.24433594 1.5625 14.5625 C1.60568359 15.84576172 1.64886719 17.12902344 1.69335938 18.45117188 C1.799848 21.63399853 1.90185962 24.81690674 2 28 C2.62196259 27.99555878 3.24392517 27.99111755 3.88473511 27.98654175 C10.34061391 27.9423976 16.79645005 27.91217082 23.25244141 27.89013672 C25.66391744 27.88006046 28.07538122 27.86639919 30.48681641 27.84912109 C33.94697085 27.8249441 37.4069642 27.81353331 40.8671875 27.8046875 C41.95055389 27.79436493 43.03392029 27.78404236 44.15011597 27.77340698 C45.1510025 27.77325592 46.15188904 27.77310486 47.18310547 27.77294922 C48.06690887 27.768508 48.95071228 27.76406677 49.86129761 27.75949097 C52 28 52 28 54 30 C54.10219373 34.2921367 52.76192564 36.54907353 50 39.625 C49.38060547 40.25776855 48.76121094 40.89053711 48.12304688 41.54248047 C45.89247082 43.97002363 45.89247082 43.97002363 44.25805664 47.00830078 C39.3856658 55.13663178 39.3856658 55.13663178 35.13250732 56.67584229 C29.93429667 57.66886341 24.70059796 57.43424931 19.4375 57.25 C17.84052656 57.23800609 16.24350255 57.23144942 14.64648438 57.23046875 C10.76090582 57.21636212 6.88340618 57.12860858 3 57 C2.98541748 57.74161377 2.97083496 58.48322754 2.95581055 59.24731445 C2.88140543 62.60290631 2.78471994 65.95749494 2.6875 69.3125 C2.66494141 70.47974609 2.64238281 71.64699219 2.61914062 72.84960938 C2.58369141 73.96787109 2.54824219 75.08613281 2.51171875 76.23828125 C2.48553467 77.26993408 2.45935059 78.30158691 2.43237305 79.36450195 C2 82 2 82 0.78051758 83.92260742 C-1 85 -1 85 -3.38569641 84.76454163 C-6.30710643 83.91018807 -7.49207664 82.99457263 -9.609375 80.84472656 C-10.27356445 80.18023499 -10.93775391 79.51574341 -11.62207031 78.83111572 C-12.32428711 78.10825378 -13.02650391 77.38539185 -13.75 76.640625 C-14.48573242 75.89923279 -15.22146484 75.15784058 -15.97949219 74.39398193 C-18.32922168 72.02188415 -20.66469003 69.63628667 -23 67.25 C-24.57199032 65.65793896 -26.14489717 64.06678235 -27.71875 62.4765625 C-31.24717006 58.90837847 -34.77493705 55.33971277 -38.26757812 51.7364502 C-39.77892638 50.22158767 -41.37579688 48.79302637 -42.984375 47.38183594 C-45 45 -45 45 -45.3477478 42.11647034 C-44.9308703 38.38046867 -44.0968714 37.36015061 -41.45166016 34.75463867 C-40.67730621 33.97751022 -39.90295227 33.20038177 -39.10513306 32.39970398 C-37.83492813 31.17124504 -37.83492813 31.17124504 -36.5390625 29.91796875 C-35.6781601 29.06318436 -34.81725769 28.20839996 -33.93026733 27.32771301 C-31.17557756 24.59998108 -28.40047248 21.89406585 -25.625 19.1875 C-23.76170842 17.34572785 -21.89971262 15.50264378 -20.0390625 13.65820312 C-16.63592012 10.29723192 -13.23129951 6.93794559 -9.80712891 3.59838867 C-9.11873932 2.9258757 -8.43034973 2.25336273 -7.72109985 1.56047058 C-4.85784827 -1.03555535 -3.60283511 -1.16220488 0 0 Z " fill="#1A62BE" transform="translate(423,437)"/>
<path d="M0 0 C13.19750318 10.79529858 22.66487048 25.91896001 25 43 C26.35588186 60.55978146 21.55479765 76.76583038 10.8125 90.75 C0.84987492 102.35077484 -13.50298649 110.66226423 -28.83496094 112.3034668 C-31.68881707 112.43546136 -34.51832766 112.46791067 -37.375 112.4375 C-38.38014648 112.42992676 -39.38529297 112.42235352 -40.42089844 112.41455078 C-48.25567781 112.24125973 -54.7940278 111.25332922 -62 108 C-63.42119141 107.36384766 -63.42119141 107.36384766 -64.87109375 106.71484375 C-73.20958477 102.562946 -80.6054937 96.64221725 -86 89 C-69.14964381 87.76847745 -69.14964381 87.76847745 -61.4296875 94.17578125 C-52.49418174 100.88459345 -40.67126247 100.87487071 -30 100 C-20.90137096 98.69557569 -11.4252081 95.43311026 -4.8125 88.80859375 C-3 87 -3 87 -1 87 C-0.72929688 86.42507813 -0.45859375 85.85015625 -0.1796875 85.2578125 C1.01465189 82.97195764 2.37989305 80.97434706 3.875 78.875 C12.01438873 66.83507291 13.29905074 54.18876973 12 40 C10.09463947 31.82009016 6.22245928 24.54681499 1 18 C0.46117187 17.32453125 -0.07765625 16.6490625 -0.6328125 15.953125 C-9.44520797 6.11070928 -22.0970115 0.66606395 -35.078125 -0.20703125 C-50.168849 -0.68979138 -62.57400553 4.11248098 -74 14 C-75.25817016 15.45845031 -76.46930757 16.95907676 -77.625 18.5 C-78.19476563 19.2528125 -78.76453125 20.005625 -79.3515625 20.78125 C-81.02837331 22.95335314 -81.02837331 22.95335314 -82.32421875 25.265625 C-84 27 -84 27 -86.91796875 27.390625 C-87.99691406 27.34421875 -89.07585937 27.2978125 -90.1875 27.25 C-91.27417969 27.21390625 -92.36085938 27.1778125 -93.48046875 27.140625 C-94.31191406 27.09421875 -95.14335937 27.0478125 -96 27 C-94.50971209 20.70767326 -90.8294772 16.06657168 -87 11 C-86.49726563 10.30519531 -85.99453125 9.61039062 -85.4765625 8.89453125 C-65.38417295 -16.65442095 -25.12193285 -18.79825511 0 0 Z " fill="#1FC6CD" transform="translate(560,359)"/>
<path d="M0 0 C5.548125 -0.0825 11.09625 -0.165 16.8125 -0.25 C19.40315308 -0.30462402 19.40315308 -0.30462402 22.04614258 -0.36035156 C31.33116586 -0.47578784 40.87820098 -0.56135557 48.21777344 5.97509766 C53.52663296 11.62261127 55.55249623 16.55866825 55.37890625 24.30078125 C54.6266748 29.65946093 52.38060244 34.83682963 48.33203125 38.515625 C46.6875 39.625 46.6875 39.625 44 41 C44.53350101 45.4539251 46.18356448 48.01828362 48.875 51.5625 C49.57367188 52.49191406 50.27234375 53.42132812 50.9921875 54.37890625 C52.23457955 56.0007838 53.48773875 57.61455082 54.7578125 59.21484375 C56 61 56 61 56 63 C50.68918803 63.88952806 45.20143829 64.78206667 40 63 C35.81650403 59.51056229 33.29796869 54.52681342 30.89111328 49.7175293 C29.90213622 47.73492258 29.90213622 47.73492258 28 45 C24.65386488 44.41312216 24.65386488 44.41312216 20.875 44.3125 C18.60625 44.209375 16.3375 44.10625 14 44 C14 50.27 14 56.54 14 63 C9.38 63 4.76 63 0 63 C0 42.21 0 21.42 0 0 Z " fill="#F8F9F9" transform="translate(280,637)"/>
<path d="M0 0 C4.25263729 1.6739759 7.76778929 3.76778929 11 7 C11.81404297 6.36771484 11.81404297 6.36771484 12.64453125 5.72265625 C13.35996094 5.17480469 14.07539062 4.62695312 14.8125 4.0625 C15.52019531 3.51722656 16.22789062 2.97195313 16.95703125 2.41015625 C22.0122275 -1.07918571 28.11191731 -0.53731553 34 0 C39.39197255 1.5976215 42.91406727 4.25241119 46 9 C46.3594873 9.53657227 46.71897461 10.07314453 47.08935547 10.62597656 C48.45552671 14.18754471 48.24451082 17.72543105 48.1953125 21.484375 C48.1924826 22.29996887 48.18965271 23.11556274 48.18673706 23.95587158 C48.17556558 26.55406528 48.15046675 29.15191095 48.125 31.75 C48.11496627 33.51431793 48.10584111 35.27864128 48.09765625 37.04296875 C48.07563619 41.36211273 48.04112733 45.68099741 48 50 C43.38 50 38.76 50 34 50 C33.99589111 49.0212793 33.99178223 48.04255859 33.98754883 47.03417969 C33.96574292 43.39578912 33.91144048 39.75847783 33.84741211 36.12060547 C33.82424439 34.54746867 33.80983921 32.97417704 33.80444336 31.40087891 C33.79514374 29.13606428 33.75414022 26.87368033 33.70703125 24.609375 C33.7109639 23.90818542 33.71489655 23.20699585 33.71894836 22.48455811 C33.60733129 18.73209564 33.26653472 17.26977067 30.58691406 14.55761719 C26.60546741 12.1603324 24.59713998 12.41623619 20 13 C17.56880377 14.87015094 16.35930827 16.28138345 15 19 C14.84479443 21.32273159 14.74980833 23.64959313 14.68359375 25.9765625 C14.66281265 26.66181 14.64203156 27.3470575 14.62062073 28.05307007 C14.55519815 30.24361069 14.49627446 32.43427189 14.4375 34.625 C14.39430782 36.1093875 14.3506933 37.59376278 14.30664062 39.078125 C14.19872862 42.71862818 14.09960219 46.35922195 14 50 C9.38 50 4.76 50 0 50 C-0.01417969 47.74800781 -0.02835938 45.49601563 -0.04296875 43.17578125 C-0.07361991 40.98463146 -0.11270005 38.79378202 -0.15258789 36.6027832 C-0.17572451 35.08498832 -0.19015348 33.56703387 -0.19555664 32.04907227 C-0.20487922 29.8611357 -0.24593151 27.67569313 -0.29296875 25.48828125 C-0.3086792 24.17384033 -0.32438965 22.85939941 -0.34057617 21.50512695 C-1.15226763 17.19063076 -2.62126445 15.71045632 -6 13 C-8.78590204 12.10302396 -11.17401191 12.26923944 -14 13 C-16.69105198 15.17574416 -18.45532928 16.91065856 -20 20 C-20.15495763 22.24974161 -20.25010928 24.50371536 -20.31640625 26.7578125 C-20.33718735 27.42086395 -20.35796844 28.08391541 -20.37937927 28.76705933 C-20.44479231 30.88626694 -20.50372105 33.005599 -20.5625 35.125 C-20.60569309 36.56121081 -20.64930764 37.99740902 -20.69335938 39.43359375 C-20.80125909 42.95560344 -20.90039243 46.47770688 -21 50 C-25.62 50 -30.24 50 -35 50 C-35 33.83 -35 17.66 -35 1 C-30.38 1 -25.76 1 -21 1 C-20.67 2.32 -20.34 3.64 -20 5 C-19.56171875 4.6390625 -19.1234375 4.278125 -18.671875 3.90625 C-12.69771301 -0.46508804 -7.27207732 -1.2199553 0 0 Z " fill="#F4F6F6" transform="translate(640,650)"/>
<path d="M0 0 C6.83933942 3.94150242 11.2469972 9.34779638 13.5625 16.9375 C13.5625 20.2375 13.5625 23.5375 13.5625 26.9375 C1.0225 26.9375 -11.5175 26.9375 -24.4375 26.9375 C-20.83802072 32.9496896 -20.83802072 32.9496896 -15.4375 35.9375 C-10.26987434 36.57752703 -5.30903951 37.00637956 -0.875 33.9375 C-0.070625 33.2775 0.73375 32.6175 1.5625 31.9375 C2.2225 31.9375 2.8825 31.9375 3.5625 31.9375 C5.0703125 33.46875 5.0703125 33.46875 6.6875 35.4375 C7.22632813 36.0871875 7.76515625 36.736875 8.3203125 37.40625 C8.73023438 37.9115625 9.14015625 38.416875 9.5625 38.9375 C7.34930509 44.21596986 3.54353105 45.44698447 -1.4375 47.9375 C-12.67944284 48.75045041 -22.31218483 49.08632658 -31.26171875 41.36328125 C-36.48242362 35.94032147 -38.49616854 29.40972295 -38.9375 22 C-38.67347409 15.19869257 -36.13593346 9.6210524 -31.3125 4.82421875 C-22.29635796 -2.5318566 -10.90915621 -5.01722162 0 0 Z " fill="#F5F6F6" transform="translate(737.4375,652.0625)"/>
<path d="M0 0 C4.90584817 3.56319498 8.3212261 7.45225263 10.6640625 13.0546875 C11.2265625 16.6171875 11.2265625 16.6171875 11.2265625 25.6171875 C-0.9834375 25.6171875 -13.1934375 25.6171875 -25.7734375 25.6171875 C-23.01802902 31.8470353 -23.01802902 31.8470353 -17.7734375 34.6171875 C-10.90467673 35.48330094 -5.12647329 34.19523101 1.2265625 31.6171875 C2.26187976 32.51746338 3.27950415 33.43811785 4.2890625 34.3671875 C4.85753906 34.87765625 5.42601562 35.388125 6.01171875 35.9140625 C7.2265625 37.6171875 7.2265625 37.6171875 7.15234375 39.68359375 C5.9550822 42.18420332 4.85681266 42.68053679 2.3515625 43.8046875 C1.65289062 44.12824219 0.95421875 44.45179688 0.234375 44.78515625 C-7.45390344 47.9711549 -17.44259528 47.87813446 -25.2734375 45.0546875 C-31.33806869 42.18887176 -36.99657926 37.37210565 -39.33203125 30.89453125 C-40.6998673 23.83746561 -41.45610512 15.45731729 -37.7109375 9.0546875 C-28.35192139 -3.07248831 -14.00447918 -8.0742437 0 0 Z " fill="#F6F7F7" transform="translate(383.7734375,653.3828125)"/>
<path d="M0 0 C4.03297183 2.80195082 7.5181809 6.79808055 9.71484375 11.19140625 C9.8016782 13.96301251 9.83040165 16.7091539 9.8125 19.48046875 C9.81108505 20.29889252 9.8096701 21.11731628 9.80821228 21.96054077 C9.80260665 24.5791995 9.79005323 27.19777329 9.77734375 29.81640625 C9.77232947 31.58984252 9.76776644 33.36328012 9.76367188 35.13671875 C9.75263539 39.48831407 9.735367 43.83984575 9.71484375 48.19140625 C5.42484375 48.19140625 1.13484375 48.19140625 -3.28515625 48.19140625 C-3.78015625 46.21140625 -3.78015625 46.21140625 -4.28515625 44.19140625 C-5.13078125 44.85140625 -5.97640625 45.51140625 -6.84765625 46.19140625 C-12.64415962 49.51726884 -19.85195668 49.13521978 -26.28515625 48.19140625 C-30.88550166 45.53736082 -34.58010566 43.30655803 -36.28515625 38.19140625 C-36.90387546 33.05603685 -36.92307721 29.32320151 -34.34765625 24.75390625 C-25.64030281 17.46816153 -15.0272737 18.87852904 -4.28515625 19.19140625 C-5.51602134 14.77666007 -5.51602134 14.77666007 -8.34765625 11.31640625 C-15.63798363 8.52436597 -22.27125648 10.40574393 -29.28515625 13.19140625 C-33.28515625 7.69140625 -33.28515625 7.69140625 -33.28515625 3.19140625 C-23.21740615 -2.05807239 -10.8686773 -4.92301138 0 0 Z " fill="#F6F7F7" transform="translate(438.28515625,651.80859375)"/>
<path d="M0 0 C4.62 0 9.24 0 14 0 C14.33 7.26 14.66 14.52 15 22 C17.64 20.68 20.28 19.36 23 18 C29.74716173 16.94080403 36.16526063 17.38246159 42 21 C46.31592462 25.14917299 48.91594202 28.36889474 49.11352539 34.5534668 C49.1133674 36.01872699 49.10773819 37.48399324 49.09765625 38.94921875 C49.0962413 39.72183548 49.09482635 40.49445221 49.09336853 41.29048157 C49.08777466 43.75619389 49.07522333 46.22181515 49.0625 48.6875 C49.05748421 50.36002473 49.05292144 52.03255088 49.04882812 53.70507812 C49.03780724 57.80342046 49.02054684 61.90169479 49 66 C44.71 66 40.42 66 36 66 C35.96261719 64.04835938 35.92523438 62.09671875 35.88671875 60.0859375 C35.82105335 57.51560597 35.75460621 54.94529432 35.6875 52.375 C35.65366211 50.44720703 35.65366211 50.44720703 35.61914062 48.48046875 C35.58369141 47.23652344 35.54824219 45.99257813 35.51171875 44.7109375 C35.48553467 43.56931152 35.45935059 42.42768555 35.43237305 41.25146484 C34.94758775 37.6058575 33.89182787 35.13883961 32 32 C28.28289437 30.14144718 24.04722719 30.42091561 20 31 C16.65374976 33.52676039 15.32022153 35.03933542 14 39 C13.84970012 41.06362991 13.75155552 43.13123915 13.68359375 45.19921875 C13.64169922 46.40771484 13.59980469 47.61621094 13.55664062 48.86132812 C13.51732422 50.12396484 13.47800781 51.38660156 13.4375 52.6875 C13.39431641 53.96173828 13.35113281 55.23597656 13.30664062 56.54882812 C13.20045211 59.69908727 13.09971187 62.8495292 13 66 C8.71 66 4.42 66 0 66 C0 44.22 0 22.44 0 0 Z " fill="#22D4E6" transform="translate(472,718)"/>
<path d="M0 0 C3.937098 2.7250894 6.62644247 5.99590185 8.21264648 10.56933594 C8.81558213 13.94063505 8.7470128 17.2909266 8.72265625 20.703125 C8.7212413 21.45213074 8.71982635 22.20113647 8.71836853 22.97283936 C8.71278659 25.35693412 8.70023745 27.74093378 8.6875 30.125 C8.68248266 31.74479031 8.67792016 33.36458209 8.67382812 34.984375 C8.66282308 38.94795312 8.64557091 42.91146045 8.625 46.875 C4.335 46.875 0.045 46.875 -4.375 46.875 C-4.375 45.225 -4.375 43.575 -4.375 41.875 C-5.7671875 42.8340625 -5.7671875 42.8340625 -7.1875 43.8125 C-13.26076686 47.74226091 -19.32618469 47.4786983 -26.375 46.875 C-30.48040803 45.63843132 -32.93496687 43.36016473 -35.8125 40.1875 C-37.82970814 35.91101875 -38.07964103 32.52391218 -37.375 27.875 C-35.62463358 23.63727076 -33.49847307 21.79928743 -29.375 19.875 C-21.58752879 17.08326504 -13.53619838 17.69672139 -5.375 17.875 C-6.36797171 13.65802674 -6.36797171 13.65802674 -9.125 10.515625 C-11.94917148 9.71152062 -14.43870726 9.61031854 -17.375 9.625 C-18.40625 9.61984375 -19.4375 9.6146875 -20.5 9.609375 C-23.35001774 9.87269186 -24.9160688 10.50040817 -27.375 11.875 C-29.4375 11.8125 -29.4375 11.8125 -31.375 10.875 C-34.46835641 6.92830389 -34.46835641 6.92830389 -34.1953125 3.84765625 C-33.09021268 1.19015431 -32.06460682 0.75667678 -29.4375 -0.375 C-20.68523829 -3.54044336 -8.46334592 -4.33693846 0 0 Z " fill="#25D7E4" transform="translate(569.375,738.125)"/>
<path d="M0 0 C1.65425049 1.15206731 3.25622825 2.37868542 4.84375 3.62109375 C3.46186547 6.83153257 1.91953097 8.6704574 -0.78125 10.87109375 C-1.41289062 11.391875 -2.04453125 11.91265625 -2.6953125 12.44921875 C-3.17742187 12.8359375 -3.65953125 13.22265625 -4.15625 13.62109375 C-4.878125 13.00234375 -5.6 12.38359375 -6.34375 11.74609375 C-12.76565085 6.89399088 -19.33519024 6.72266488 -27.15625 7.62109375 C-32.66929874 9.51153311 -36.49662332 13.26439158 -39.30859375 18.31640625 C-41.46444878 24.17794758 -41.06667333 30.32615972 -38.53125 35.99609375 C-36.03907423 40.33069946 -32.64899108 43.37472321 -28.15625 45.62109375 C-19.67288073 46.30020861 -13.44892572 46.07772892 -6.15625 41.62109375 C-4.1796875 40.77734375 -4.1796875 40.77734375 -2.15625 40.62109375 C-0.234375 42.0546875 -0.234375 42.0546875 1.59375 44.05859375 C2.20734375 44.71730469 2.8209375 45.37601563 3.453125 46.0546875 C4.14148438 46.83005859 4.14148438 46.83005859 4.84375 47.62109375 C3.65131093 51.19841095 2.68785444 51.68062217 -0.40625 53.68359375 C-1.17453125 54.19019531 -1.9428125 54.69679688 -2.734375 55.21875 C-10.65698238 59.80619524 -19.79349272 60.84174356 -28.7421875 59.125 C-39.32498201 56.24322365 -46.35804334 50.69809473 -52.48046875 41.66796875 C-56.26556554 34.70870306 -56.38501795 26.3152482 -55.15625 18.62109375 C-52.33362697 9.51452894 -47.14822587 3.17270127 -39.0078125 -1.65234375 C-26.87664138 -8.0110617 -11.48974367 -7.34760782 0 0 Z " fill="#22CFE1" transform="translate(457.15625,726.37890625)"/>
<path d="M0 0 C-0.55355584 4.86514073 -1.59998088 9.0066176 -3.375 13.5625 C-6.61294721 22.42278534 -8.44719524 31.28856901 -9.859375 40.5859375 C-13.16982711 62.19236315 -18.26717434 82.1290772 -33 99 C-33.49628906 99.57878906 -33.99257813 100.15757812 -34.50390625 100.75390625 C-45.92746104 113.09363586 -63.89366834 124.14679446 -80.90625 125.17578125 C-83.28067491 125.18578585 -85.63009696 125.13880126 -88 125 C-88 124.67 -88 124.34 -88 124 C-87.319375 123.87625 -86.63875 123.7525 -85.9375 123.625 C-70.62341727 120.36668453 -56.31400563 112.79460234 -46.4453125 100.5390625 C-45.96835937 100.03117187 -45.49140625 99.52328125 -45 99 C-44.34 99 -43.68 99 -43 99 C-42.72929688 98.27296875 -42.45859375 97.5459375 -42.1796875 96.796875 C-41.03204488 94.07597395 -39.69812003 91.74416958 -38.125 89.25 C-30.04800754 75.87983287 -26.27075754 60.96543208 -25.625 45.375 C-24.7541487 29.18872749 -20.18616606 18.61930043 -9 7 C-8.31679688 6.27683594 -7.63359375 5.55367188 -6.9296875 4.80859375 C-2.28623737 0 -2.28623737 0 0 0 Z " fill="#0E9086" transform="translate(651,370)"/>
<path d="M0 0 C155.43 0 310.86 0 471 0 C471 0.99 471 1.98 471 3 C315.57 3 160.14 3 0 3 C0 2.01 0 1.02 0 0 Z " fill="#1EA0C1" transform="translate(277,600)"/>
<path d="M0 0 C0 0.33 0 0.66 0 1 C-0.969375 1.20625 -1.93875 1.4125 -2.9375 1.625 C-16.26393451 5.52411711 -28.13135279 18.44553838 -35 30 C-42.81276406 44.80102536 -47.0938666 61.11225477 -48.38671875 77.76953125 C-49.36883571 90.12230248 -50.64950585 101.90222191 -60 111 C-60.66 111 -61.32 111 -62 111 C-62 111.66 -62 112.32 -62 113 C-63.46875 114.4453125 -63.46875 114.4453125 -65.5 116.125 C-69.90524012 119.8615876 -73.96599235 123.86943366 -78 128 C-78.33 127.01 -78.66 126.02 -79 125 C-78.1796875 123.37890625 -78.1796875 123.37890625 -76.875 121.5625 C-67.91305608 107.82250311 -64.68453896 90.9760935 -62.5625 74.9375 C-59.79152878 54.58052306 -52.80787153 35.6371053 -38 21 C-37.5059668 20.46737549 -37.01193359 19.93475098 -36.50292969 19.38598633 C-31.95335981 14.58167759 -27.00325673 11.13041017 -21.375 7.6875 C-20.12589844 6.90149414 -20.12589844 6.90149414 -18.8515625 6.09960938 C-12.38322863 2.0775005 -7.81038586 -0.30628964 0 0 Z " fill="#07388F" transform="translate(459,325)"/>
<path d="M0 0 C18.15 0 36.3 0 55 0 C55 3.63 55 7.26 55 11 C48.07 11 41.14 11 34 11 C34 28.16 34 45.32 34 63 C29.38 63 24.76 63 20 63 C20 45.84 20 28.68 20 11 C13.4 11 6.8 11 0 11 C0 7.37 0 3.74 0 0 Z " fill="#FBFCFC" transform="translate(513,637)"/>
<path d="M0 0 C1.80268232 3.60536464 -0.33052891 7.29997467 -1.515625 10.96484375 C-8.26278095 29.92815319 -18.46955291 48.53277528 -36.8125 58.3125 C-49.96942335 64.41691323 -62.86429646 65.49409249 -77.02929688 62.53393555 C-87.86227293 60.58688438 -99.08081964 60.84020514 -110.05249023 60.86962891 C-112.45888404 60.87504816 -114.86509575 60.86961578 -117.27148438 60.86328125 C-118.82552124 60.86394123 -120.37955799 60.86522072 -121.93359375 60.8671875 C-122.64100204 60.86516327 -123.34841034 60.86313904 -124.07725525 60.86105347 C-128.4934568 60.88167561 -132.65564853 61.28697548 -137 62 C-137 61.34 -137 60.68 -137 60 C-139.31 60 -141.62 60 -144 60 C-144 59.67 -144 59.34 -144 59 C-138.41848583 58.35813521 -132.83513584 57.73455692 -127.25 57.125 C-126.40265289 57.03251984 -125.55530579 56.94003967 -124.68228149 56.84475708 C-110.59346099 55.32546699 -96.53004359 54.30903977 -82.37011719 53.77197266 C-75.14180619 53.47261926 -68.08781092 52.848096 -60.953125 51.6171875 C-60.27315964 51.50144882 -59.59319427 51.38571014 -58.8926239 51.26646423 C-40.53236137 47.85856583 -23.41667199 37.43760367 -12.3125 22.375 C-7.64727155 15.26168138 -3.87021733 7.5649146 0 0 Z " fill="#0C90C9" transform="translate(595,260)"/>
<path d="M0 0 C4.62 0 9.24 0 14 0 C14 3.96 14 7.92 14 12 C17.96 12 21.92 12 26 12 C26 15.63 26 19.26 26 23 C22.04 23 18.08 23 14 23 C14.14010035 26.97944615 14.28679559 30.95845381 14.4375 34.9375 C14.47681641 36.07380859 14.51613281 37.21011719 14.55664062 38.38085938 C14.59853516 39.46044922 14.64042969 40.54003906 14.68359375 41.65234375 C14.72025146 42.65257568 14.75690918 43.65280762 14.79467773 44.68334961 C14.74671841 46.96069188 14.74671841 46.96069188 16 48 C17.68608966 48.07205511 19.37500659 48.08386068 21.0625 48.0625 C21.98160156 48.05347656 22.90070312 48.04445313 23.84765625 48.03515625 C24.55792969 48.02355469 25.26820313 48.01195312 26 48 C29 54.625 29 54.625 29 58 C22.86173361 60.86683628 16.64267119 60.86871461 10 60 C5.22389021 57.80768731 1.97245091 54.89611027 0 50 C-0.22705078 47.06738281 -0.22705078 47.06738281 -0.1953125 43.703125 C-0.18564453 41.89521484 -0.18564453 41.89521484 -0.17578125 40.05078125 C-0.15902344 38.79652344 -0.14226563 37.54226563 -0.125 36.25 C-0.11597656 34.98027344 -0.10695313 33.71054687 -0.09765625 32.40234375 C-0.07409005 29.26803907 -0.04118832 26.13411459 0 23 C-2.64 23 -5.28 23 -8 23 C-8 19.37 -8 15.74 -8 12 C-5.36 12 -2.72 12 0 12 C0 8.04 0 4.08 0 0 Z " fill="#26DAE5" transform="translate(594,725)"/>
<path d="M0 0 C16.46254547 2.99303398 33.71154581 1.74314379 50.375 1.5 C50.045 2.82 49.715 4.14 49.375 5.5 C42.31925319 6.29961628 35.25908432 6.67306674 28.16796875 6.96484375 C26.76818283 7.02304794 26.76818283 7.02304794 25.34011841 7.08242798 C21.43549928 7.2429189 17.5308079 7.40055151 13.62573242 7.54956055 C-13.89030513 8.61132445 -39.92768654 11.42365887 -59.75 32.75 C-67.18771064 41.49230908 -72.77298767 51.13433729 -77.625 61.5 C-79.43676436 57.31232909 -77.65648335 53.64922469 -76.1875 49.625 C-75.91599121 48.873396 -75.64448242 48.12179199 -75.36474609 47.34741211 C-71.0439394 35.84590558 -64.78689656 25.70623372 -56.625 16.5 C-56.01140625 15.79230469 -55.3978125 15.08460938 -54.765625 14.35546875 C-39.8563298 -1.75519528 -20.43957504 -3.76870423 0 0 Z " fill="#17A9BD" transform="translate(520.625,493.5)"/>
<path d="M0 0 C4.29 0 8.58 0 13 0 C13 22.11 13 44.22 13 67 C8.71 67 4.42 67 0 67 C0 44.89 0 22.78 0 0 Z " fill="#FCFDFD" transform="translate(463,633)"/>
<path d="M0 0 C0.66 0 1.32 0 2 0 C2.51046875 1.17755859 2.51046875 1.17755859 3.03125 2.37890625 C8.05320028 13.26425062 13.78827324 18.82155554 25 23 C25 23.66 25 24.32 25 25 C24.21496094 25.3403125 23.42992187 25.680625 22.62109375 26.03125 C11.73574938 31.05320028 6.17844446 36.78827324 2 48 C1.34 48 0.68 48 0 48 C-0.3403125 47.21496094 -0.680625 46.42992187 -1.03125 45.62109375 C-6.05320028 34.73574938 -11.78827324 29.17844446 -23 25 C-23 24.34 -23 23.68 -23 23 C-22.21496094 22.6596875 -21.42992187 22.319375 -20.62109375 21.96875 C-9.73574938 16.94679972 -4.17844446 11.21172676 0 0 Z " fill="#7E8B95" transform="translate(967,944)"/>
<path d="M0 0 C4.29 0 8.58 0 13 0 C13 15.84 13 31.68 13 48 C8.71 48 4.42 48 0 48 C0 32.16 0 16.32 0 0 Z " fill="#FCFEFD" transform="translate(577,651)"/>
<path d="M0 0 C56.76 0 113.52 0 172 0 C172 0.33 172 0.66 172 1 C188.83 1.33 205.66 1.66 223 2 C223 2.33 223 2.66 223 3 C149.41 3 75.82 3 0 3 C0 2.01 0 1.02 0 0 Z " fill="#195195" transform="translate(277,600)"/>
<path d="M0 0 C2.84625 -0.0825 5.6925 -0.165 8.625 -0.25 C9.51010254 -0.28641602 10.39520508 -0.32283203 11.30712891 -0.36035156 C16.6946415 -0.4355318 19.75911288 0.3724104 24 4 C26.67134463 8.00701694 26.82653281 11.28876296 26 16 C23.47031526 19.28175318 21.92268669 20.69243777 18 22 C16.59175107 22.08021999 15.18002769 22.10765977 13.76953125 22.09765625 C13.04612549 22.09515869 12.32271973 22.09266113 11.57739258 22.09008789 C10.66497803 22.08098389 9.75256348 22.07187988 8.8125 22.0625 C5.904375 22.041875 2.99625 22.02125 0 22 C0 14.74 0 7.48 0 0 Z " fill="#082335" transform="translate(294,648)"/>
<path d="M0 0 C0.38218767 1.65614657 0.71395102 3.32457024 1 5 C0 6 0 6 -2.98803711 6.11523438 C-4.35532414 6.11394732 -5.72261289 6.10620971 -7.08984375 6.09375 C-7.83862289 6.09016479 -8.58740204 6.08657959 -9.35887146 6.08288574 C-19.76192999 6.01175507 -30.16249334 5.74775777 -40.5625 5.5 C-42.65299067 5.45164432 -44.74348545 5.40346615 -46.83398438 5.35546875 C-51.88937254 5.23901946 -56.94469943 5.12018925 -62 5 C-62 3.68 -62 2.36 -62 1 C-18.78520834 -0.19388403 -18.78520834 -0.19388403 0 0 Z " fill="#1788C3" transform="translate(494,420)"/>
<path d="M0 0 C1.85638427 -0.04385997 3.71308184 -0.0738921 5.56976318 -0.10253906 C7.03603149 -0.13057617 7.03603149 -0.13057617 8.53192139 -0.15917969 C10.76898193 0.05371094 10.76898193 0.05371094 12.76898193 2.05371094 C12.39398193 4.17871094 12.39398193 4.17871094 11.76898193 6.05371094 C-7.92870754 6.17316884 -27.5508904 6.02340403 -47.23101807 5.05371094 C-46.90101807 3.73371094 -46.57101807 2.41371094 -46.23101807 1.05371094 C-40.20282401 0.90933225 -34.1745861 0.76700213 -28.14630127 0.62646484 C-26.10104101 0.57850768 -24.05579317 0.53001763 -22.01055908 0.48095703 C-16.25240268 0.34302026 -10.49421657 0.21450483 -4.73547363 0.10351562 C-3.15691744 0.07212377 -1.57841095 0.03799966 0 0 Z " fill="#1CB0C1" transform="translate(493.23101806640625,433.9462890625)"/>
<path d="M0 0 C3.34116896 2.07382901 3.94669413 5.35394121 5 9 C5.99 9 6.98 9 8 9 C7.67 9.66 7.34 10.32 7 11 C4.625 11.1875 4.625 11.1875 2 11 C1.34 10.01 0.68 9.02 0 8 C-2.05925139 7.27617533 -2.05925139 7.27617533 -4 7 C-4.79277344 8.27423828 -4.79277344 8.27423828 -5.6015625 9.57421875 C-8.14189233 13.37577655 -11.16631157 16.57054176 -14.375 19.8125 C-14.92671875 20.39708984 -15.4784375 20.98167969 -16.046875 21.58398438 C-19.52799107 25.11004443 -21.83034146 26.7735346 -27 27 C-25.96501431 23.89504293 -25.21350711 23.21350711 -23 21 C-22.71253906 20.38511719 -22.42507812 19.77023437 -22.12890625 19.13671875 C-20.84538805 16.70736077 -19.34950453 15.15137473 -17.375 13.25 C-16.74335938 12.63640625 -16.11171875 12.0228125 -15.4609375 11.390625 C-14.73777344 10.70226562 -14.73777344 10.70226562 -14 10 C-14.48210937 10.42152344 -14.96421875 10.84304688 -15.4609375 11.27734375 C-16.09257812 11.82519531 -16.72421875 12.37304688 -17.375 12.9375 C-18.00148437 13.48277344 -18.62796875 14.02804687 -19.2734375 14.58984375 C-21 16 -21 16 -23 17 C-22.33333333 15.66666667 -21.66666667 14.33333333 -21 13 C-20.525625 11.989375 -20.05125 10.97875 -19.5625 9.9375 C-18.19506291 7.36671827 -17.28900562 5.73964427 -15 4 C-13.66923011 3.65657551 -12.33568021 3.32380126 -11 3 C-10.401875 2.484375 -9.80375 1.96875 -9.1875 1.4375 C-6.02751324 -0.63906273 -3.69547607 -0.40314284 0 0 Z " fill="#014D64" transform="translate(150,848)"/>
<path d="M0 0 C2.63382667 2.49634671 3.96659556 4.46920151 5 8 C4.25875631 13.83582331 -1.04840076 17.36487631 -5.3125 20.9375 C-7 22 -7 22 -9 22 C-9 21.34 -9 20.68 -9 20 C-9.61875 20.61875 -10.2375 21.2375 -10.875 21.875 C-13.4869375 24.4869375 -16.02068464 26.81516873 -19 29 C-19.66 28.67 -20.32 28.34 -21 28 C-21 27.34 -21 26.68 -21 26 C-21.350625 26.474375 -21.70125 26.94875 -22.0625 27.4375 C-24.84163543 29.67873825 -27.5144717 29.67117658 -31 30 C-30.67 28.35 -30.34 26.7 -30 25 C-29.4225 24.896875 -28.845 24.79375 -28.25 24.6875 C-25.63814092 23.88943195 -24.13906154 22.68532121 -22 21 C-19.7232526 19.57703288 -17.47555627 18.22822881 -15.0546875 17.06640625 C-7.6884776 13.24325929 -3.85112777 7.13798774 0 0 Z M2 9 C1.67 9.66 1.34 10.32 1 11 C1.66 11 2.32 11 3 11 C2.67 10.34 2.34 9.68 2 9 Z " fill="#016179" transform="translate(171,873)"/>
<path d="M0 0 C1.32 0.33 2.64 0.66 4 1 C4.25785067 4.85315683 3.86306676 6.81259881 1.5859375 9.92578125 C1.07160156 10.64056641 0.55726563 11.35535156 0.02734375 12.09179688 C-0.79056641 13.19104492 -0.79056641 13.19104492 -1.625 14.3125 C-2.14707031 15.03373047 -2.66914062 15.75496094 -3.20703125 16.49804688 C-6.74868835 21.3732909 -10.37400286 26.1872981 -14 31 C-15.65 30.01 -17.3 29.02 -19 28 C-17.73189989 24.53975783 -16.27384555 21.72252542 -14.1015625 18.75 C-13.25851562 17.58984375 -13.25851562 17.58984375 -12.3984375 16.40625 C-11.81320312 15.6121875 -11.22796875 14.818125 -10.625 14 C-9.75875 12.80890625 -9.75875 12.80890625 -8.875 11.59375 C-6.00120679 7.65704697 -3.08820711 3.77278504 0 0 Z " fill="#E09123" transform="translate(541,378)"/>
<path d="M0 0 C2.1640625 0.34375 2.1640625 0.34375 4.7265625 1.90625 C6.74381947 5.32681617 6.7910508 7.44248948 6.1640625 11.34375 C3.46877779 14.52908648 1.78000805 15.24475875 -2.3359375 15.90625 C-5.8359375 15.34375 -5.8359375 15.34375 -8.8359375 13.28125 C-10.8359375 10.34375 -10.8359375 10.34375 -10.8359375 6.71875 C-8.96654537 0.40955157 -6.17364804 -0.24131523 0 0 Z " fill="#F5F6F7" transform="translate(585.8359375,628.65625)"/>
<path d="M0 0 C5.8693572 0.23333836 9.53899677 3.05674163 14.125 6.375 C15.17880859 7.1175 15.17880859 7.1175 16.25390625 7.875 C17.59794076 8.82522478 18.93590318 9.78411717 20.26660156 10.75292969 C21.64552456 11.74497739 23.06313071 12.68320312 24.4921875 13.6015625 C24.98976563 14.06304687 25.48734375 14.52453125 26 15 C26 16.32 26 17.64 26 19 C22.93282662 20.09153835 20.85682929 20.40557763 17.86572266 18.98974609 C15.45450734 17.46217907 13.12957439 15.85436535 10.8125 14.1875 C10.00619141 13.62740234 9.19988281 13.06730469 8.36914062 12.49023438 C6.87321866 11.44943081 5.38215534 10.40158318 3.89770508 9.34448242 C2.28461927 8.20164651 0.64487731 7.09658487 -1 6 C-1.25 3.4375 -1.25 3.4375 -1 1 C-0.67 0.67 -0.34 0.34 0 0 Z " fill="#23CFB3" transform="translate(501,394)"/>
<path d="M0 0 C5.05422257 2.68183239 5.08017266 4.24051797 7 10 C-1.25 10 -9.5 10 -18 10 C-14.70324844 0.10974532 -9.90070674 -1.45905152 0 0 Z " fill="#092336" transform="translate(731,661)"/>
<path d="M0 0 C2.7844834 1.37263266 3.89251586 2.56828753 6 5 C6.33 6.65 6.66 8.3 7 10 C-0.92 10 -8.84 10 -17 10 C-16.0570981 5.28549049 -15.66535232 3.78364092 -11.94140625 0.95703125 C-8.06001175 -0.95633224 -4.17514051 -0.84585505 0 0 Z " fill="#0B2639" transform="translate(375,661)"/>
<path d="M0 0 C0.70189453 0.01353516 1.40378906 0.02707031 2.12695312 0.04101562 C3.85579829 0.07629818 5.58424765 0.13010417 7.3125 0.1875 C7.4609375 3.5390625 7.4609375 3.5390625 7.3125 7.1875 C3.76710262 10.73289738 1.36521716 12.12066081 -3.625 12.4375 C-6.18781874 12.39098786 -7.42922718 12.33277846 -9.6875 11.0625 C-11.16651666 8.28934376 -11.07351984 6.27565875 -10.6875 3.1875 C-8.16815839 -0.8604309 -4.26509739 -0.15531167 0 0 Z " fill="#072337" transform="translate(556.6875,763.8125)"/>
<path d="M0 0 C1.26328125 0.02707031 2.5265625 0.05414062 3.828125 0.08203125 C4.79234375 0.11683594 5.7565625 0.15164063 6.75 0.1875 C6.9765625 6.890625 6.9765625 6.890625 4.9375 9.5625 C0.85352451 12.59631036 -3.34577548 12.73922526 -8.25 12.1875 C-10.25 11.0625 -10.25 11.0625 -11.25 9.1875 C-11.6875 6.1875 -11.6875 6.1875 -11.25 3.1875 C-7.88212399 -0.39765833 -4.72503941 -0.13125109 0 0 Z " fill="#0B263A" transform="translate(427.25,678.8125)"/>
<path d="M0 0 C8.58 0 17.16 0 26 0 C26.33 1.32 26.66 2.64 27 4 C25.28915499 5.71084501 23.05639907 5.13014689 20.72265625 5.1328125 C19.11680664 5.13474609 19.11680664 5.13474609 17.47851562 5.13671875 C16.35123047 5.13285156 15.22394531 5.12898438 14.0625 5.125 C12.93908203 5.12886719 11.81566406 5.13273437 10.65820312 5.13671875 C9.58634766 5.13542969 8.51449219 5.13414062 7.41015625 5.1328125 C5.92721069 5.13112061 5.92721069 5.13112061 4.41430664 5.12939453 C2 5 2 5 0 4 C0 2.68 0 1.36 0 0 Z " fill="#1369B7" transform="translate(430,404)"/>
<path d="M0 0 C2 1.3125 2 1.3125 4 3 C4 3.99 4 4.98 4 6 C4.598125 5.649375 5.19625 5.29875 5.8125 4.9375 C8 4 8 4 11 5 C13.14255793 4.61067144 13.14255793 4.61067144 15 4 C15.33 4.66 15.66 5.32 16 6 C16.556875 5.79375 17.11375 5.5875 17.6875 5.375 C20.659538 4.89304789 22.31979941 5.73434972 25 7 C24.67 7.99 24.34 8.98 24 10 C23.2575 9.814375 22.515 9.62875 21.75 9.4375 C19.07770627 8.82527572 19.07770627 8.82527572 16.8125 9.5625 C16.214375 9.706875 15.61625 9.85125 15 10 C14.34 9.34 13.68 8.68 13 8 C12.01 8.33 11.02 8.66 10 9 C1.56877323 10.33828996 1.56877323 10.33828996 -2 9 C-2.20140476 5.37471432 -1.85776765 3.13498292 0 0 Z " fill="#005174" transform="translate(149,392)"/>
<path d="M0 0 C6.93 0 13.86 0 21 0 C20.67 1.65 20.34 3.3 20 5 C17.27076612 5.0270817 14.54180363 5.04687847 11.8125 5.0625 C11.04357422 5.07087891 10.27464844 5.07925781 9.48242188 5.08789062 C5.51473211 5.10491934 1.87428766 4.98604115 -2 4 C-1.34 2.68 -0.68 1.36 0 0 Z " fill="#1BC9C8" transform="translate(474,421)"/>
<path d="M0 0 C0 0.66 0 1.32 0 2 C4.95 2 9.9 2 15 2 C15 2.33 15 2.66 15 3 C14.00669678 3.02505615 13.01339355 3.0501123 11.98999023 3.07592773 C8.27926326 3.17061449 4.56869698 3.27068163 0.8581543 3.37231445 C-0.74304424 3.41543296 -2.34428196 3.45712264 -3.94555664 3.49731445 C-6.25679291 3.55558091 -8.56783613 3.61910785 -10.87890625 3.68359375 C-11.58648575 3.70030624 -12.29406525 3.71701874 -13.02308655 3.73423767 C-17.43086217 3.86348944 -21.65544615 4.30278719 -26 5 C-26 4.34 -26 3.68 -26 3 C-28.31 3 -30.62 3 -33 3 C-33 2.67 -33 2.34 -33 2 C-21.92900046 0.57966558 -11.16809528 -0.2964981 0 0 Z " fill="#0B72BC" transform="translate(484,317)"/>
<path d="M0 0 C0.33 0.66 0.66 1.32 1 2 C1.60473145 1.96447021 2.20946289 1.92894043 2.83251953 1.89233398 C5.5963347 1.73384985 8.36060933 1.58559236 11.125 1.4375 C12.55199219 1.35338867 12.55199219 1.35338867 14.0078125 1.26757812 C18.83790076 1.01601103 23.24190617 0.91861504 28 2 C26.8125 3.5 26.8125 3.5 25 5 C22.5 5.1875 22.5 5.1875 20 5 C16.4944658 5 13.00141479 5.09660469 9.5 5.25 C8.82324219 5.26417969 8.14648438 5.27835937 7.44921875 5.29296875 C4.08096653 5.45905614 2.41871018 5.56467433 0.03125 8.046875 C-0.3090625 8.69140625 -0.649375 9.3359375 -1 10 C-0.979375 9.05125 -0.95875 8.1025 -0.9375 7.125 C-0.77448174 4.09333717 -0.77448174 4.09333717 -2 2 C-1.34 2 -0.68 2 0 2 C0 1.34 0 0.68 0 0 Z " fill="#384454" transform="translate(134,447)"/>
<path d="M0 0 C6.27 0 12.54 0 19 0 C18.67 0.66 18.34 1.32 18 2 C23.445 2.495 23.445 2.495 29 3 C29 3.33 29 3.66 29 4 C19.43 4 9.86 4 0 4 C0 2.68 0 1.36 0 0 Z " fill="#186CBC" transform="translate(432,421)"/>
<path d="M0 0 C0.61101562 0.19335938 1.22203125 0.38671875 1.8515625 0.5859375 C-2.55687187 5.87605874 -7.22403544 10.77402178 -12.1484375 15.5859375 C-13.1484375 12.5859375 -13.1484375 12.5859375 -12.109375 10.46484375 C-4.36818581 -0.84186854 -4.36818581 -0.84186854 0 0 Z " fill="#026C85" transform="translate(142.1484375,857.4140625)"/>
<path d="M0 0 C0.33 0.66 0.66 1.32 1 2 C5.34464536 1.39174965 9.67551867 0.73832608 14 0 C14 0.66 14 1.32 14 2 C14.99 1.67 15.98 1.34 17 1 C19.0859375 1.12109375 19.0859375 1.12109375 21.375 1.4375 C24.61423699 1.84967045 27.72787259 2.1055525 31 2 C31 2.99 31 3.98 31 5 C29.94941406 4.9278125 28.89882812 4.855625 27.81640625 4.78125 C23.5456989 4.49436589 19.27355168 4.24040705 15 4 C14.03449219 3.94328125 13.06898438 3.8865625 12.07421875 3.828125 C8.68619825 3.71424196 6.49366584 3.69620564 3.5625 5.5 C3.046875 5.995 2.53125 6.49 2 7 C1.34 7 0.68 7 0 7 C0 4.69 0 2.38 0 0 Z " fill="#374C61" transform="translate(131,467)"/>
<path d="M0 0 C0.66 0.33 1.32 0.66 2 1 C0.7934375 1.8971875 0.7934375 1.8971875 -0.4375 2.8125 C-3.22327984 4.80947276 -3.22327984 4.80947276 -4 8 C-11.73910188 11.21834696 -19.65624018 12.69210911 -28 12 C-28 11.67 -28 11.34 -28 11 C-27.319375 10.87625 -26.63875 10.7525 -25.9375 10.625 C-18.36406525 9.0136309 -12.02142007 6.26181011 -5.2578125 2.60546875 C-3.53203333 1.68482671 -1.76847458 0.83569921 0 0 Z " fill="#0B7C7E" transform="translate(591,483)"/>
<path d="M0 0 C3.96 0 7.92 0 12 0 C12.33 1.32 12.66 2.64 13 4 C12 5 12 5 8.83984375 5.09765625 C6.90818359 5.08025391 6.90818359 5.08025391 4.9375 5.0625 C3.64714844 5.05347656 2.35679687 5.04445313 1.02734375 5.03515625 C0.02832031 5.02355469 -0.97070312 5.01195312 -2 5 C-1.34 3.35 -0.68 1.7 0 0 Z " fill="#23E1D5" transform="translate(493,435)"/>
<path d="M0 0 C10.89 0 21.78 0 33 0 C33 0.33 33 0.66 33 1 C22.605 1.495 22.605 1.495 12 2 C11.67 2.66 11.34 3.32 11 4 C7.04 4 3.08 4 -1 4 C-0.67 2.68 -0.34 1.36 0 0 Z " fill="#1173AD" transform="translate(447,435)"/>
<path d="M0 0 C2 1 2 1 3.1875 3.3125 C4.07992279 6.26436 4.04333564 7.17116214 3 10 C-0.0768519 13.75521295 -3.88519846 17.40919903 -8 20 C-8.66 20 -9.32 20 -10 20 C-8.34665243 16.09208756 -5.73192511 13.21001201 -3 10 C-0.70366176 6.55549263 -0.45983515 4.06187717 0 0 Z M1 7 C0.67 7.66 0.34 8.32 0 9 C0.66 9 1.32 9 2 9 C1.67 8.34 1.34 7.68 1 7 Z " fill="#014F66" transform="translate(172,875)"/>
<path d="M0 0 C1.87945313 0.06960938 1.87945313 0.06960938 3.796875 0.140625 C5.06015625 0.17671875 6.3234375 0.2128125 7.625 0.25 C9.07132813 0.31960938 9.07132813 0.31960938 10.546875 0.390625 C10.216875 1.710625 9.886875 3.030625 9.546875 4.390625 C3.936875 4.390625 -1.673125 4.390625 -7.453125 4.390625 C-3.453125 0.390625 -3.453125 0.390625 0 0 Z " fill="#16A09F" transform="translate(560.453125,494.609375)"/>
<path d="M0 0 C0.99 0.33 1.98 0.66 3 1 C2.67 2.32 2.34 3.64 2 5 C2.66 5.33 3.32 5.66 4 6 C2.89718873 7.27200971 1.79269231 8.54255853 0.6875 9.8125 C-0.23482422 10.87404297 -0.23482422 10.87404297 -1.17578125 11.95703125 C-2.73334335 13.70136739 -4.32658875 15.36778041 -6 17 C-5.49487476 10.77012202 -2.67395877 5.54525767 0 0 Z " fill="#0F81D1" transform="translate(385,346)"/>
<path d="M0 0 C-0.50789063 0.25652344 -1.01578125 0.51304687 -1.5390625 0.77734375 C-8.14220806 4.44987977 -11.92131576 9.36355976 -15 16.23046875 C-16 18 -16 18 -18.625 18.75 C-19.40875 18.8325 -20.1925 18.915 -21 19 C-19.96501431 15.89504293 -19.21350711 15.21350711 -17 13 C-16.59201172 12.10667969 -16.59201172 12.10667969 -16.17578125 11.1953125 C-14.69667364 8.43365643 -12.83247945 6.53098017 -10.625 4.3125 C-9.46871094 3.13107422 -9.46871094 3.13107422 -8.2890625 1.92578125 C-5.4152549 -0.49194426 -3.49858626 -1.74929313 0 0 Z " fill="#015C75" transform="translate(144,856)"/>
<path d="M0 0 C0.33 0.99 0.66 1.98 1 3 C1.66 3 2.32 3 3 3 C2.39733215 7.50727647 0.63400206 10.8587963 -1.5625 14.8125 C-2.0565332 15.7087207 -2.0565332 15.7087207 -2.56054688 16.62304688 C-3.36773267 18.08533998 -4.18304917 19.5431399 -5 21 C-6.05711427 17.80042565 -5.95184778 16.03354912 -4.78515625 12.890625 C-4.51123047 12.13652344 -4.23730469 11.38242187 -3.95507812 10.60546875 C-3.51325195 9.43951172 -3.51325195 9.43951172 -3.0625 8.25 C-2.77181641 7.45722656 -2.48113281 6.66445313 -2.18164062 5.84765625 C-1.46405186 3.89487371 -0.73329094 1.94694059 0 0 Z " fill="#1798AD" transform="translate(448,534)"/>
<path d="M0 0 C-1.50432705 3.82919612 -3.55656194 5.78089547 -7 8 C-10.8125 8.75 -10.8125 8.75 -14 9 C-13.67 7.35 -13.34 5.7 -13 4 C-12.4225 3.896875 -11.845 3.79375 -11.25 3.6875 C-8.90849495 3.12492742 -8.90849495 3.12492742 -7.0625 1.4375 C-4.53166529 -0.3264151 -3.01962166 -0.25163514 0 0 Z " fill="#005770" transform="translate(154,894)"/>
<path d="M0 0 C6.93 0 13.86 0 21 0 C20.67 0.99 20.34 1.98 20 3 C17.22858283 3.08089542 14.45952181 3.14044062 11.6875 3.1875 C10.90181641 3.21263672 10.11613281 3.23777344 9.30664062 3.26367188 C8.54931641 3.27333984 7.79199219 3.28300781 7.01171875 3.29296875 C6.31522217 3.3086792 5.61872559 3.32438965 4.90112305 3.34057617 C3 3 3 3 0 0 Z " fill="#1698D6" transform="translate(455,436)"/>
<path d="M0 0 C1.21236328 0.04060547 1.21236328 0.04060547 2.44921875 0.08203125 C3.06410156 0.11683594 3.67898438 0.15164063 4.3125 0.1875 C4.875 2.125 4.875 2.125 5.3125 4.1875 C4.3125 5.1875 4.3125 5.1875 0.5 5.375 C-2.72290201 5.3460691 -4.94294723 5.01720185 -7.6875 3.1875 C-5.26849268 0.20484049 -3.789448 -0.16475861 0 0 Z " fill="#1693D3" transform="translate(451.6875,403.8125)"/>
<path d="M0 0 C0.391875 0.515625 0.78375 1.03125 1.1875 1.5625 C2.0846875 2.2740625 2.0846875 2.2740625 3 3 C5.65466049 2.76956136 5.65466049 2.76956136 8 2 C9.125 8.75 9.125 8.75 8 11 C8.27942455 12.67654729 8.60828247 14.34608154 9 16 C5.49702126 11.97806144 0 5.60566856 0 0 Z " fill="#21455E" transform="translate(168,713)"/>
<path d="M0 0 C3 1.75 3 1.75 6 4 C6 5.32 6 6.64 6 8 C3.25 8.6875 3.25 8.6875 0 9 C-2.375 7.5625 -2.375 7.5625 -4 6 C-3.67 5.01 -3.34 4.02 -3 3 C-2.34 3.66 -1.68 4.32 -1 5 C-0.67 3.35 -0.34 1.7 0 0 Z " fill="#3FCFB7" transform="translate(521,405)"/>
<path d="M0 0 C0.66 0.66 1.32 1.32 2 2 C1.64233358 5.21899781 0.12582643 8.05327544 -1.171875 10.9921875 C-2.39931254 13.96814455 -3.37051112 17.01756431 -4.3515625 20.08203125 C-5 22 -5 22 -6 24 C-6.66 24 -7.32 24 -8 24 C-5.96136383 15.72943539 -3.17712327 7.89885589 0 0 Z " fill="#096788" transform="translate(145,373)"/>
<path d="M0 0 C0.9796875 0.00322266 1.959375 0.00644531 2.96875 0.00976562 C3.98453125 0.01814453 5.0003125 0.02652344 6.046875 0.03515625 C7.59375 0.04192383 7.59375 0.04192383 9.171875 0.04882812 C11.71360073 0.06059537 14.25520819 0.07703614 16.796875 0.09765625 C16.796875 0.42765625 16.796875 0.75765625 16.796875 1.09765625 C10.196875 1.09765625 3.596875 1.09765625 -3.203125 1.09765625 C-3.863125 2.41765625 -4.523125 3.73765625 -5.203125 5.09765625 C-7.183125 5.09765625 -9.163125 5.09765625 -11.203125 5.09765625 C-10.453125 3.16015625 -10.453125 3.16015625 -9.203125 1.09765625 C-6.13626479 0.00802388 -3.23166821 -0.01878877 0 0 Z " fill="#16A9BF" transform="translate(477.203125,419.90234375)"/>
<path d="M0 0 C2.64 0 5.28 0 8 0 C8.5625 1.9375 8.5625 1.9375 9 4 C8 5 8 5 5.93359375 5.09765625 C5.10988281 5.08605469 4.28617187 5.07445312 3.4375 5.0625 C2.61121094 5.05347656 1.78492188 5.04445313 0.93359375 5.03515625 C0.29550781 5.02355469 -0.34257812 5.01195312 -1 5 C-0.67 3.35 -0.34 1.7 0 0 Z " fill="#17A0C2" transform="translate(463,404)"/>
<path d="M0 0 C0.33 0.99 0.66 1.98 1 3 C-0.21484375 5.04296875 -0.21484375 5.04296875 -1.9375 7.1875 C-2.50339844 7.90292969 -3.06929687 8.61835938 -3.65234375 9.35546875 C-4.09707031 9.89816406 -4.54179688 10.44085938 -5 11 C-7.5 9.625 -7.5 9.625 -10 8 C-10 7.34 -10 6.68 -10 6 C-8.824375 5.87625 -8.824375 5.87625 -7.625 5.75 C-4.8553382 5.29150599 -4.8553382 5.29150599 -3.875 3 C-3.441875 2.01 -3.441875 2.01 -3 1 C-2.01 0.67 -1.02 0.34 0 0 Z " fill="#E79628" transform="translate(532,398)"/>
<path d="M0 0 C1.18239258 0.00676758 1.18239258 0.00676758 2.38867188 0.01367188 C4.32164761 0.02538688 6.25458393 0.04332002 8.1875 0.0625 C8.1875 0.3925 8.1875 0.7225 8.1875 1.0625 C5.47922996 1.54202665 2.77088656 2.02113231 0.0625 2.5 C-0.69804687 2.63470703 -1.45859375 2.76941406 -2.2421875 2.90820312 C-6.42887161 3.64809127 -10.61727147 4.37223077 -14.8125 5.0625 C-14.4825 3.7425 -14.1525 2.4225 -13.8125 1.0625 C-9.18790756 -0.11450048 -4.73383538 -0.05158412 0 0 Z " fill="#055190" transform="translate(473.8125,319.9375)"/>
<path d="M0 0 C1.18414294 3.55242882 0.69535532 4.69830562 -0.4375 8.1875 C-0.72496094 9.08855469 -1.01242187 9.98960937 -1.30859375 10.91796875 C-1.53675781 11.60503906 -1.76492188 12.29210937 -2 13 C-2.33 13 -2.66 13 -3 13 C-3 11.35 -3 9.7 -3 8 C-3.33 8.33 -3.66 8.66 -4 9 C-5.66270287 10.33827304 -7.32916181 11.67189785 -9 13 C-9.66 12.67 -10.32 12.34 -11 12 C-10.37351562 11.38511719 -9.74703125 10.77023437 -9.1015625 10.13671875 C-8.28429687 9.32847656 -7.46703125 8.52023438 -6.625 7.6875 C-5.40683594 6.48673828 -5.40683594 6.48673828 -4.1640625 5.26171875 C-1.87395158 2.99990063 -1.87395158 2.99990063 0 0 Z " fill="#13AFCB" transform="translate(598,247)"/>
<path d="M0 0 C1.76923828 0.01353516 1.76923828 0.01353516 3.57421875 0.02734375 C4.47785156 0.03894531 5.38148438 0.05054688 6.3125 0.0625 C6.3125 0.3925 6.3125 0.7225 6.3125 1.0625 C2.6825 1.0625 -0.9475 1.0625 -4.6875 1.0625 C-5.3475 2.7125 -6.0075 4.3625 -6.6875 6.0625 C-8.3375 5.7325 -9.9875 5.4025 -11.6875 5.0625 C-10.875 3.125 -10.875 3.125 -9.6875 1.0625 C-6.26517028 -0.07827657 -3.60076783 -0.03565117 0 0 Z " fill="#1BBEBD" transform="translate(497.6875,433.9375)"/>
<path d="M0 0 C0.78375 0.185625 1.5675 0.37125 2.375 0.5625 C4.97089775 1.25962266 4.97089775 1.25962266 7 0 C9.625 0.9375 9.625 0.9375 12 2 C11.67 2.99 11.34 3.98 11 5 C10.2575 4.814375 9.515 4.62875 8.75 4.4375 C6.07770627 3.82527572 6.07770627 3.82527572 3.8125 4.5625 C3.214375 4.706875 2.61625 4.85125 2 5 C1.34 4.34 0.68 3.68 0 3 C-0.99 3.495 -0.99 3.495 -2 4 C-1.34 2.68 -0.68 1.36 0 0 Z " fill="#004B6D" transform="translate(162,397)"/>
<path d="M0 0 C6.27 0 12.54 0 19 0 C19 0.33 19 0.66 19 1 C11.08 1.495 11.08 1.495 3 2 C5.64 2.33 8.28 2.66 11 3 C11 3.33 11 3.66 11 4 C7.37 4 3.74 4 0 4 C0 2.68 0 1.36 0 0 Z " fill="#1257A0" transform="translate(432,421)"/>
<path d="M0 0 C-1.36983503 3.16115776 -1.9890638 3.9927092 -5 6 C-5.66 5.34 -6.32 4.68 -7 4 C-3.375 0 -3.375 0 0 0 Z " fill="#051A2E" transform="translate(644,358)"/>
<path d="M0 0 C2.10448938 0.14109986 4.2085877 0.28804175 6.3125 0.4375 C8.07013672 0.55931641 8.07013672 0.55931641 9.86328125 0.68359375 C13 1 13 1 16 2 C15.67 2.66 15.34 3.32 15 4 C9.72 3.67 4.44 3.34 -1 3 C-0.67 2.01 -0.34 1.02 0 0 Z " fill="#363D4A" transform="translate(147,468)"/>
<path d="M0 0 C0.66 0.33 1.32 0.66 2 1 C-2.05489233 5.27083334 -5.96318503 8.92877136 -11 12 C-11.66 11.67 -12.32 11.34 -13 11 C-8.71 7.37 -4.42 3.74 0 0 Z " fill="#093C5D" transform="translate(769,833)"/>
<path d="M0 0 C4.95 0 9.9 0 15 0 C15 2.31 15 4.62 15 7 C13 8.9375 13 8.9375 11 10 C11 9.01 11 8.02 11 7 C11.99 6.67 12.98 6.34 14 6 C14 4.35 14 2.7 14 1 C9.38 1 4.76 1 0 1 C0 0.67 0 0.34 0 0 Z " fill="#0D4458" transform="translate(549,764)"/>
<path d="M0 0 C1.57156655 3.1431331 0.11705576 5.365464 -0.9375 8.625 C-1.31777344 9.81351562 -1.69804688 11.00203125 -2.08984375 12.2265625 C-2.39019531 13.14179688 -2.69054687 14.05703125 -3 15 C-3.99 14.34 -4.98 13.68 -6 13 C-4.31326082 8.50202887 -2.18326108 4.27113698 0 0 Z " fill="#0F8AB6" transform="translate(595,260)"/>
<path d="M0 0 C0.33 0.99 0.66 1.98 1 3 C1.66 3 2.32 3 3 3 C2.46930939 6.82097239 1.50298434 9.06171403 -1 12 C-1.33 11.01 -1.66 10.02 -2 9 C-1.67 8.34 -1.34 7.68 -1 7 C-0.63858045 4.67085177 -0.30300475 2.33746522 0 0 Z " fill="#159FB6" transform="translate(448,534)"/>
<path d="M0 0 C0.75 1.625 0.75 1.625 1 4 C-0.8125 7.25 -0.8125 7.25 -3 10 C-3.66 10 -4.32 10 -5 10 C-4.38545304 6.00544473 -2.29353263 3.25533664 0 0 Z " fill="#182530" transform="translate(532,401)"/>
<path d="M0 0 C0 3 0 3 -1.875 5.1875 C-4 7 -4 7 -6 7 C-6 7.66 -6 8.32 -6 9 C-6.66 8.67 -7.32 8.34 -8 8 C-3.45945946 0 -3.45945946 0 0 0 Z " fill="#1BCAB5" transform="translate(664,357)"/>
<path d="M0 0 C0.66 0.33 1.32 0.66 2 1 C1 4 1 4 -0.875 5.1875 C-3 6 -3 6 -6 6 C-2.25 1.125 -2.25 1.125 0 0 Z " fill="#005069" transform="translate(156,895)"/>
<path d="M0 0 C0.33 0.99 0.66 1.98 1 3 C0.525625 3.391875 0.05125 3.78375 -0.4375 4.1875 C-2.35179633 6.40808374 -2.61266988 8.13375709 -3 11 C-3.33 11 -3.66 11 -4 11 C-4.35233161 5.62694301 -4.35233161 5.62694301 -4 3 C-2 1 -2 1 0 0 Z " fill="#01627C" transform="translate(130,873)"/>
<path d="M0 0 C0.66 1.32 1.32 2.64 2 4 C3.32 3.34 4.64 2.68 6 2 C5.02471263 3.33617352 4.04466681 4.6688751 3.0625 6 C2.51722656 6.7425 1.97195312 7.485 1.41015625 8.25 C0.94480469 8.8275 0.47945313 9.405 0 10 C-0.33 10 -0.66 10 -1 10 C-0.67 6.7 -0.34 3.4 0 0 Z " fill="#2E4F5F" transform="translate(124,447)"/>
<path d="M0 0 C0.66 0.66 1.32 1.32 2 2 C-0.64 4.64 -3.28 7.28 -6 10 C-6 6.41087588 -5.33563446 5.89142971 -3 3.3125 C-2.443125 2.68988281 -1.88625 2.06726563 -1.3125 1.42578125 C-0.879375 0.95527344 -0.44625 0.48476563 0 0 Z " fill="#084C6E" transform="translate(212,261)"/>
<path d="M0 0 C2.31 0 4.62 0 7 0 C6.67 0.99 6.34 1.98 6 3 C3.36 3 0.72 3 -2 3 C-1.34 2.67 -0.68 2.34 0 2 C0 1.34 0 0.68 0 0 Z " fill="#19ACD7" transform="translate(469,436)"/>
<path d="M0 0 C1.98 0 3.96 0 6 0 C5.67 1.32 5.34 2.64 5 4 C3.35 4 1.7 4 0 4 C0 2.68 0 1.36 0 0 Z " fill="#18ACCF" transform="translate(462,405)"/>
<path d="M0 0 C0.66 0 1.32 0 2 0 C0.4169423 4.2742558 -2.50568404 6.26531794 -6 9 C-6 8.01 -6 7.02 -6 6 C-5.34 6 -4.68 6 -4 6 C-4 5.34 -4 4.68 -4 4 C-3.34 4 -2.68 4 -2 4 C-1.34 2.68 -0.68 1.36 0 0 Z " fill="#A3BC2C" transform="translate(629,367)"/>
<path d="M0 0 C0 0.99 0 1.98 0 3 C-1 4 -2 5 -3 6 C-3 6.99 -3 7.98 -3 9 C-3.99 9 -4.98 9 -6 9 C-4.83857315 4.64464931 -3.92300495 2.35380297 0 0 Z " fill="#173042" transform="translate(719,662)"/>
<path d="M0 0 C1.4384798 0.06423833 2.87666999 0.14163547 4.3125 0.25 C4.3125 0.58 4.3125 0.91 4.3125 1.25 C0.33189223 2.42076699 -3.60371717 3.50749403 -7.6875 4.25 C-5.84004374 0.30875998 -4.09551026 -0.02575793 0 0 Z " fill="#1384C6" transform="translate(451.6875,403.75)"/>
<path d="M0 0 C0 3.99904969 -1.72586967 5.80200422 -4 9 C-4.99 8.34 -5.98 7.68 -7 7 C-4.69 4.69 -2.38 2.38 0 0 Z " fill="#0F2631" transform="translate(649,350)"/>
<path d="M0 0 C0.66 0 1.32 0 2 0 C3.2890625 1.53125 3.2890625 1.53125 4.625 3.5 C5.07101562 4.1496875 5.51703125 4.799375 5.9765625 5.46875 C6.31429687 5.9740625 6.65203125 6.479375 7 7 C4 7 4 7 1.8125 5.1875 C0 3 0 3 0 0 Z " fill="#94D14D" transform="translate(630,309)"/>
<path d="M0 0 C0 4.24645065 -1.81750806 6.38524772 -4 10 C-4.66 8.68 -5.32 7.36 -6 6 C-4.02 4.02 -2.04 2.04 0 0 Z " fill="#18AB9B" transform="translate(656,363)"/>
<path d="M0 0 C0.33 0.99 0.66 1.98 1 3 C-0.65 4.32 -2.3 5.64 -4 7 C-3.67 5.68 -3.34 4.36 -3 3 C-2.34 3 -1.68 3 -1 3 C-0.67 2.01 -0.34 1.02 0 0 Z " fill="#01445C" transform="translate(175,881)"/>
<path d="M0 0 C0.33 1.32 0.66 2.64 1 4 C-0.98 4.33 -2.96 4.66 -5 5 C-5.33 4.34 -5.66 3.68 -6 3 C-4.02 2.67 -2.04 2.34 0 2 C0 1.34 0 0.68 0 0 Z " fill="#2DABAC" transform="translate(526,409)"/>
<path d="M0 0 C2 1.3125 2 1.3125 4 3 C4 3.99 4 4.98 4 6 C2.35 6 0.7 6 -1 6 C-0.67 4.02 -0.34 2.04 0 0 Z " fill="#006285" transform="translate(149,392)"/>
<path d="M0 0 C0.66 0.66 1.32 1.32 2 2 C0.35 3.32 -1.3 4.64 -3 6 C-3.66 5.67 -4.32 5.34 -5 5 C-3.35 3.35 -1.7 1.7 0 0 Z " fill="#016B85" transform="translate(156,889)"/>
<path d="M0 0 C0.99 0.33 1.98 0.66 3 1 C1.515 4.465 1.515 4.465 0 8 C-0.66 8 -1.32 8 -2 8 C-1.34 5.36 -0.68 2.72 0 0 Z " fill="#0C5E7C" transform="translate(139,389)"/>
</svg>
